
mtllib 0_2.mtl
v -0.432752 -0.213545 0.030000
v -0.503460 -0.284253 0.030000
v -0.503460 -0.354961 0.030000
v -0.354961 -0.503460 0.030000
v -0.284253 -0.503460 0.030000
v -0.213545 -0.432752 0.030000
v -0.213545 -0.362044 0.030000
v -0.362044 -0.213545 0.030000
v -0.432752 -0.213545 -0.000000
v -0.362044 -0.213545 -0.000000
v -0.213545 -0.362044 -0.000000
v -0.213545 -0.432752 -0.000000
v -0.284253 -0.503460 -0.000000
v -0.354961 -0.503460 -0.000000
v -0.503460 -0.354961 -0.000000
v -0.503460 -0.284253 -0.000000
v -0.503460 -0.284253 0.030000
v -0.503460 -0.284253 -0.000000
v -0.503460 -0.354961 -0.000000
v -0.503460 -0.354961 0.030000
v -0.354961 -0.503460 -0.000000
v -0.354961 -0.503460 0.030000
v -0.284253 -0.503460 -0.000000
v -0.284253 -0.503460 0.030000
v -0.213545 -0.432752 -0.000000
v -0.213545 -0.432752 0.030000
v -0.213545 -0.362044 -0.000000
v -0.213545 -0.362044 0.030000
v -0.362044 -0.213545 -0.000000
v -0.362044 -0.213545 0.030000
v -0.432752 -0.213545 -0.000000
v -0.432752 -0.213545 0.030000
v -0.213545 0.362044 0.030000
v -0.362044 0.213545 0.030000
v -0.362044 0.213545 -0.000000
v -0.213545 0.362044 -0.000000
v -0.213545 0.432752 0.030000
v -0.213545 0.432752 -0.000000
v -0.284253 0.503460 0.030000
v -0.284253 0.503460 -0.000000
v -0.354961 0.503460 0.030000
v -0.354961 0.503460 -0.000000
v -0.503460 0.354961 0.030000
v -0.503460 0.354961 -0.000000
v -0.503460 0.284253 0.030000
v -0.503460 0.284253 -0.000000
v -0.432752 0.213545 -0.000000
v -0.503460 0.284253 -0.000000
v -0.503460 0.354961 -0.000000
v -0.354961 0.503460 -0.000000
v -0.284253 0.503460 -0.000000
v -0.213545 0.432752 -0.000000
v -0.213545 0.362044 -0.000000
v -0.362044 0.213545 -0.000000
v -0.432752 0.213545 0.030000
v -0.432752 0.213545 -0.000000
v -0.432752 0.213545 0.030000
v -0.362044 0.213545 0.030000
v -0.213545 0.362044 0.030000
v -0.213545 0.432752 0.030000
v -0.284253 0.503460 0.030000
v -0.354961 0.503460 0.030000
v -0.503460 0.354961 0.030000
v -0.503460 0.284253 0.030000
v 0.432752 0.213545 0.030000
v 0.503460 0.284253 0.030000
v 0.503460 0.354961 0.030000
v 0.354961 0.503460 0.030000
v 0.284253 0.503460 0.030000
v 0.213545 0.432752 0.030000
v 0.213545 0.362044 0.030000
v 0.362044 0.213545 0.030000
v 0.432752 0.213545 -0.000000
v 0.362044 0.213545 -0.000000
v 0.213545 0.362044 -0.000000
v 0.213545 0.432752 -0.000000
v 0.284253 0.503460 -0.000000
v 0.354961 0.503460 -0.000000
v 0.503460 0.354961 -0.000000
v 0.503460 0.284253 -0.000000
v 0.503460 0.284253 0.030000
v 0.503460 0.284253 -0.000000
v 0.503460 0.354961 -0.000000
v 0.503460 0.354961 0.030000
v 0.354961 0.503460 -0.000000
v 0.354961 0.503460 0.030000
v 0.284253 0.503460 -0.000000
v 0.284253 0.503460 0.030000
v 0.213545 0.432752 -0.000000
v 0.213545 0.432752 0.030000
v 0.213545 0.362044 -0.000000
v 0.213545 0.362044 0.030000
v 0.362044 0.213545 -0.000000
v 0.362044 0.213545 0.030000
v 0.432752 0.213545 -0.000000
v 0.432752 0.213545 0.030000
v 0.213545 -0.362044 0.030000
v 0.362044 -0.213545 0.030000
v 0.362044 -0.213545 -0.000000
v 0.213545 -0.362044 -0.000000
v 0.213545 -0.432752 0.030000
v 0.213545 -0.432752 -0.000000
v 0.284253 -0.503460 0.030000
v 0.284253 -0.503460 -0.000000
v 0.354961 -0.503460 0.030000
v 0.354961 -0.503460 -0.000000
v 0.503460 -0.354961 0.030000
v 0.503460 -0.354961 -0.000000
v 0.503460 -0.284253 0.030000
v 0.503460 -0.284253 -0.000000
v 0.432752 -0.213545 -0.000000
v 0.503460 -0.284253 -0.000000
v 0.503460 -0.354961 -0.000000
v 0.354961 -0.503460 -0.000000
v 0.284253 -0.503460 -0.000000
v 0.213545 -0.432752 -0.000000
v 0.213545 -0.362044 -0.000000
v 0.362044 -0.213545 -0.000000
v 0.432752 -0.213545 0.030000
v 0.432752 -0.213545 -0.000000
v 0.432752 -0.213545 0.030000
v 0.362044 -0.213545 0.030000
v 0.213545 -0.362044 0.030000
v 0.213545 -0.432752 0.030000
v 0.284253 -0.503460 0.030000
v 0.354961 -0.503460 0.030000
v 0.503460 -0.354961 0.030000
v 0.503460 -0.284253 0.030000
vn 0.000014 0.000014 1.000000
vn 0.000014 0.000014 1.000000
vn 0.000014 0.000014 1.000000
vn 0.000014 0.000014 1.000000
vn 0.000014 0.000014 1.000000
vn 0.000014 0.000014 1.000000
vn 0.000014 0.000014 1.000000
vn 0.000014 0.000014 1.000000
vn 0.000014 0.000014 -1.000000
vn 0.000014 0.000014 -1.000000
vn 0.000014 0.000014 -1.000000
vn 0.000014 0.000014 -1.000000
vn 0.000014 0.000014 -1.000000
vn 0.000014 0.000014 -1.000000
vn 0.000014 0.000014 -1.000000
vn 0.000014 0.000014 -1.000000
vn -0.923884 0.382679 0.000015
vn -0.923884 0.382679 0.000015
vn -0.923884 -0.382679 0.000015
vn -0.923884 -0.382679 0.000015
vn -0.382679 -0.923884 0.000015
vn -0.382679 -0.923884 0.000015
vn 0.382679 -0.923884 0.000015
vn 0.382679 -0.923884 0.000015
vn 0.923884 -0.382679 0.000015
vn 0.923884 -0.382679 0.000015
vn 0.923884 0.382679 0.000015
vn 0.923884 0.382679 0.000015
vn 0.382679 0.923884 0.000015
vn 0.382679 0.923884 0.000015
vn -0.382679 0.923884 0.000015
vn -0.382679 0.923884 0.000015
vn 0.923884 -0.382679 0.000015
vn 0.382679 -0.923884 0.000015
vn 0.382679 -0.923884 0.000015
vn 0.923884 -0.382679 0.000015
vn 0.923884 0.382679 0.000015
vn 0.923884 0.382679 0.000015
vn 0.382679 0.923884 0.000015
vn 0.382679 0.923884 0.000015
vn -0.382679 0.923884 0.000015
vn -0.382679 0.923884 0.000015
vn -0.923884 0.382679 0.000015
vn -0.923884 0.382679 0.000015
vn -0.923884 -0.382679 0.000015
vn -0.923884 -0.382679 0.000015
vn 0.000014 0.000014 -1.000000
vn 0.000014 0.000014 -1.000000
vn 0.000014 0.000014 -1.000000
vn 0.000014 0.000014 -1.000000
vn 0.000014 0.000014 -1.000000
vn 0.000014 0.000014 -1.000000
vn 0.000014 0.000014 -1.000000
vn 0.000014 0.000014 -1.000000
vn -0.382679 -0.923884 0.000015
vn -0.382679 -0.923884 0.000015
vn 0.000014 0.000014 1.000000
vn 0.000014 0.000014 1.000000
vn 0.000014 0.000014 1.000000
vn 0.000014 0.000014 1.000000
vn 0.000014 0.000014 1.000000
vn 0.000014 0.000014 1.000000
vn 0.000014 0.000014 1.000000
vn 0.000014 0.000014 1.000000
vn 0.000014 0.000014 1.000000
vn 0.000014 0.000014 1.000000
vn 0.000014 0.000014 1.000000
vn 0.000014 0.000014 1.000000
vn 0.000014 0.000014 1.000000
vn 0.000014 0.000014 1.000000
vn 0.000014 0.000014 1.000000
vn 0.000014 0.000014 1.000000
vn 0.000014 0.000014 -1.000000
vn 0.000014 0.000014 -1.000000
vn 0.000014 0.000014 -1.000000
vn 0.000014 0.000014 -1.000000
vn 0.000014 0.000014 -1.000000
vn 0.000014 0.000014 -1.000000
vn 0.000014 0.000014 -1.000000
vn 0.000014 0.000014 -1.000000
vn 0.923884 -0.382679 0.000015
vn 0.923884 -0.382679 0.000015
vn 0.923884 0.382679 0.000015
vn 0.923884 0.382679 0.000015
vn 0.382679 0.923884 0.000015
vn 0.382679 0.923884 0.000015
vn -0.382679 0.923884 0.000015
vn -0.382679 0.923884 0.000015
vn -0.923884 0.382679 0.000015
vn -0.923884 0.382679 0.000015
vn -0.923884 -0.382679 0.000015
vn -0.923884 -0.382679 0.000015
vn -0.382679 -0.923884 0.000015
vn -0.382679 -0.923884 0.000015
vn 0.382679 -0.923884 0.000015
vn 0.382679 -0.923884 0.000015
vn -0.923884 0.382679 0.000015
vn -0.382679 0.923884 0.000015
vn -0.382679 0.923884 0.000015
vn -0.923884 0.382679 0.000015
vn -0.923884 -0.382679 0.000015
vn -0.923884 -0.382679 0.000015
vn -0.382679 -0.923884 0.000015
vn -0.382679 -0.923884 0.000015
vn 0.382679 -0.923884 0.000015
vn 0.382679 -0.923884 0.000015
vn 0.923884 -0.382679 0.000015
vn 0.923884 -0.382679 0.000015
vn 0.923884 0.382679 0.000015
vn 0.923884 0.382679 0.000015
vn 0.000014 0.000014 -1.000000
vn 0.000014 0.000014 -1.000000
vn 0.000014 0.000014 -1.000000
vn 0.000014 0.000014 -1.000000
vn 0.000014 0.000014 -1.000000
vn 0.000014 0.000014 -1.000000
vn 0.000014 0.000014 -1.000000
vn 0.000014 0.000014 -1.000000
vn 0.382679 0.923884 0.000015
vn 0.382679 0.923884 0.000015
vn 0.000014 0.000014 1.000000
vn 0.000014 0.000014 1.000000
vn 0.000014 0.000014 1.000000
vn 0.000014 0.000014 1.000000
vn 0.000014 0.000014 1.000000
vn 0.000014 0.000014 1.000000
vn 0.000014 0.000014 1.000000
vn 0.000014 0.000014 1.000000

g prd00000003_oNWWNOk+++++3++-ID+HN_explode_4
usemtl Material_94_145_158_255
f 2//2 3//3 1//1
f 3//3 4//4 1//1
f 5//5 1//1 4//4
f 6//6 1//1 5//5
f 1//1 7//7 8//8
f 7//7 1//1 6//6
f 11//11 9//9 10//10
f 12//12 9//9 11//11
f 13//13 9//9 12//12
f 14//14 9//9 13//13
f 9//9 15//15 16//16
f 15//15 9//9 14//14
f 17//17 19//19 20//20
f 19//19 21//21 20//20
f 20//20 21//21 22//22
f 21//21 23//23 22//22
f 22//22 23//23 24//24
f 23//23 25//25 24//24
f 24//24 25//25 26//26
f 25//25 27//27 26//26
f 26//26 27//27 28//28
f 27//27 29//29 28//28
f 28//28 29//29 30//30
f 29//29 31//31 30//30
f 30//30 31//31 32//32
f 31//31 18//18 32//32
f 32//32 18//18 17//17
f 18//18 19//19 17//17
f 49//49 47//47 48//48
f 50//50 47//47 49//49
f 51//51 47//47 50//50
f 52//52 47//47 51//51
f 47//47 53//53 54//54
f 53//53 47//47 52//52
f 37//37 33//33 36//36
f 36//36 33//33 35//35
f 33//33 34//34 35//35
f 35//35 34//34 56//56
f 34//34 55//55 56//56
f 56//56 55//55 46//46
f 55//55 45//45 46//46
f 46//46 45//45 44//44
f 45//45 43//43 44//44
f 44//44 43//43 42//42
f 38//38 37//37 36//36
f 37//37 38//38 39//39
f 38//38 40//40 39//39
f 39//39 40//40 41//41
f 40//40 42//42 41//41
f 41//41 42//42 43//43
f 59//59 57//57 58//58
f 60//60 57//57 59//59
f 61//61 57//57 60//60
f 62//62 57//57 61//61
f 57//57 63//63 64//64
f 63//63 57//57 62//62
f 66//66 67//67 65//65
f 67//67 68//68 65//65
f 69//69 65//65 68//68
f 70//70 65//65 69//69
f 65//65 71//71 72//72
f 71//71 65//65 70//70
f 75//75 73//73 74//74
f 76//76 73//73 75//75
f 77//77 73//73 76//76
f 78//78 73//73 77//77
f 73//73 79//79 80//80
f 79//79 73//73 78//78
f 81//81 83//83 84//84
f 83//83 85//85 84//84
f 84//84 85//85 86//86
f 85//85 87//87 86//86
f 86//86 87//87 88//88
f 87//87 89//89 88//88
f 88//88 89//89 90//90
f 89//89 91//91 90//90
f 90//90 91//91 92//92
f 91//91 93//93 92//92
f 92//92 93//93 94//94
f 93//93 95//95 94//94
f 94//94 95//95 96//96
f 95//95 82//82 96//96
f 96//96 82//82 81//81
f 82//82 83//83 81//81
f 113//113 111//111 112//112
f 114//114 111//111 113//113
f 115//115 111//111 114//114
f 116//116 111//111 115//115
f 111//111 117//117 118//118
f 117//117 111//111 116//116
f 101//101 97//97 100//100
f 100//100 97//97 99//99
f 97//97 98//98 99//99
f 99//99 98//98 120//120
f 98//98 119//119 120//120
f 120//120 119//119 110//110
f 119//119 109//109 110//110
f 110//110 109//109 108//108
f 109//109 107//107 108//108
f 108//108 107//107 106//106
f 102//102 101//101 100//100
f 101//101 102//102 103//103
f 102//102 104//104 103//103
f 103//103 104//104 105//105
f 104//104 106//106 105//105
f 105//105 106//106 107//107
f 123//123 121//121 122//122
f 124//124 121//121 123//123
f 125//125 121//121 124//124
f 126//126 121//121 125//125
f 121//121 127//127 128//128
f 127//127 121//121 126//126
