
mtllib 1_2.mtl
v -0.265502 0.054664 0.744600
v -0.265502 0.033163 0.744600
v -0.272001 0.026665 0.738098
v -0.272001 0.054664 0.738098
v -0.265502 0.033163 0.744600
v -0.249500 0.033163 0.744600
v -0.249500 0.026665 0.738098
v -0.272001 0.026665 0.738098
v -0.265502 0.033163 0.757598
v -0.249500 0.033163 0.757598
v -0.272001 0.026665 0.764100
v -0.249500 0.026665 0.764100
v -0.272001 0.054664 0.764100
v -0.272001 0.026665 0.764100
v -0.265502 0.033163 0.757598
v -0.265502 0.054664 0.757598
v -0.265502 0.054664 0.757598
v -0.265502 0.054664 0.744600
v -0.272001 0.054664 0.738098
v -0.285000 0.054664 0.738098
v -0.291500 0.054664 0.744600
v -0.291500 0.054664 0.757598
v -0.285000 0.054664 0.764100
v -0.272001 0.054664 0.764100
v -0.291500 0.054664 0.757598
v -0.291500 0.007164 0.757598
v -0.285000 0.013663 0.764100
v -0.285000 0.054664 0.764100
v -0.291500 0.007164 0.757598
v -0.249500 0.007164 0.757598
v -0.249500 0.013663 0.764100
v -0.285000 0.013663 0.764100
v -0.291500 0.007164 0.744600
v -0.249500 0.007164 0.744600
v -0.285000 0.013663 0.738098
v -0.249500 0.013663 0.738098
v -0.285000 0.054664 0.738098
v -0.285000 0.013663 0.738098
v -0.291500 0.007164 0.744600
v -0.291500 0.054664 0.744600
v -0.272001 0.026665 0.764100
v -0.272001 0.054664 0.764100
v -0.285000 0.054664 0.764100
v -0.285000 0.013663 0.764100
v -0.249500 0.026665 0.764100
v -0.249500 0.013663 0.764100
v -0.285000 0.013663 0.738098
v -0.285000 0.054664 0.738098
v -0.272001 0.054664 0.738098
v -0.272001 0.026665 0.738098
v -0.249500 0.013663 0.738098
v -0.249500 0.026665 0.738098
v -0.287002 -0.036499 0.667602
v -0.287002 -0.036499 0.689098
v -0.293502 -0.042997 0.695600
v -0.293502 -0.042997 0.667602
v -0.287002 -0.036499 0.689098
v -0.271000 -0.036499 0.689098
v -0.271000 -0.042997 0.695600
v -0.293502 -0.042997 0.695600
v -0.287002 -0.023502 0.689098
v -0.271000 -0.023502 0.689098
v -0.293502 -0.016998 0.695600
v -0.271000 -0.016998 0.695600
v -0.293502 -0.016998 0.667602
v -0.293502 -0.016998 0.695600
v -0.287002 -0.023502 0.689098
v -0.287002 -0.023502 0.667602
v -0.287002 -0.023502 0.667602
v -0.287002 -0.036499 0.667602
v -0.293502 -0.042997 0.667602
v -0.306501 -0.042997 0.667602
v -0.313000 -0.036499 0.667602
v -0.313000 -0.023502 0.667602
v -0.306501 -0.016998 0.667602
v -0.293502 -0.016998 0.667602
v -0.313000 -0.023502 0.667602
v -0.313000 -0.023502 0.715101
v -0.306501 -0.016998 0.708599
v -0.306501 -0.016998 0.667602
v -0.313000 -0.023502 0.715101
v -0.271000 -0.023502 0.715101
v -0.271000 -0.016998 0.708599
v -0.306501 -0.016998 0.708599
v -0.313000 -0.036499 0.715101
v -0.271000 -0.036499 0.715101
v -0.306501 -0.042997 0.708599
v -0.271000 -0.042997 0.708599
v -0.306501 -0.042997 0.667602
v -0.306501 -0.042997 0.708599
v -0.313000 -0.036499 0.715101
v -0.313000 -0.036499 0.667602
v -0.293502 -0.016998 0.695600
v -0.293502 -0.016998 0.667602
v -0.306501 -0.016998 0.667602
v -0.306501 -0.016998 0.708599
v -0.271000 -0.016998 0.695600
v -0.271000 -0.016998 0.708599
v -0.306501 -0.042997 0.708599
v -0.306501 -0.042997 0.667602
v -0.293502 -0.042997 0.667602
v -0.293502 -0.042997 0.695600
v -0.271000 -0.042997 0.708599
v -0.271000 -0.042997 0.695600
v -0.472752 0.050502 0.526935
v -0.472752 -0.087500 0.526935
v -0.394811 -0.087500 0.571936
v -0.394811 0.050502 0.571936
v -0.471284 0.057572 0.524397
v -0.393343 0.057572 0.569398
v -0.467747 0.060501 0.518271
v -0.389806 0.060501 0.563272
v -0.398882 0.060501 0.398975
v -0.320928 0.060501 0.443976
v -0.395345 0.057572 0.392855
v -0.317404 0.057572 0.437857
v -0.393877 0.050502 0.390317
v -0.315936 0.050502 0.435318
v -0.393877 -0.087500 0.390317
v -0.315936 -0.087500 0.435318
v -0.395345 -0.094571 0.392855
v -0.317404 -0.094571 0.437857
v -0.398882 -0.097500 0.398975
v -0.320928 -0.097500 0.443976
v -0.467747 -0.097500 0.518271
v -0.389806 -0.097500 0.563272
v -0.389806 -0.097500 0.563272
v -0.320928 -0.097500 0.443976
v -0.317404 -0.094571 0.437857
v -0.315936 -0.087500 0.435318
v -0.315936 0.050502 0.435318
v -0.317404 0.057572 0.437857
v -0.320928 0.060501 0.443976
v -0.389806 0.060501 0.563272
v -0.393343 0.057572 0.569398
v -0.394811 0.050502 0.571936
v -0.394811 -0.087500 0.571936
v -0.393343 -0.094571 0.569398
v -0.471284 -0.094571 0.524397
v -0.393343 -0.094571 0.569398
v -0.467747 -0.097500 0.518271
v -0.471284 -0.094571 0.524397
v -0.472752 -0.087500 0.526935
v -0.472752 0.050502 0.526935
v -0.471284 0.057572 0.524397
v -0.467747 0.060501 0.518271
v -0.398882 0.060501 0.398975
v -0.395345 0.057572 0.392855
v -0.393877 0.050502 0.390317
v -0.393877 -0.087500 0.390317
v -0.395345 -0.094571 0.392855
v -0.398882 -0.097500 0.398975
v 0.313289 0.127240 0.593501
v 0.313289 0.148741 0.593501
v 0.306789 0.155239 0.586999
v 0.306789 0.127240 0.586999
v 0.313289 0.148741 0.593501
v 0.313289 0.148741 0.609499
v 0.306789 0.155239 0.609499
v 0.306789 0.155239 0.586999
v 0.326301 0.148741 0.593501
v 0.326301 0.148741 0.609499
v 0.332801 0.155239 0.586999
v 0.332801 0.155239 0.609499
v 0.332801 0.127240 0.586999
v 0.332801 0.155239 0.586999
v 0.326301 0.148741 0.593501
v 0.326301 0.127240 0.593501
v 0.326301 0.127240 0.593501
v 0.313289 0.127240 0.593501
v 0.306789 0.127240 0.586999
v 0.306789 0.127240 0.574000
v 0.313289 0.127240 0.567498
v 0.326301 0.127240 0.567498
v 0.332801 0.127240 0.574000
v 0.332801 0.127240 0.586999
v 0.326301 0.127240 0.567498
v 0.326301 0.174740 0.567498
v 0.332801 0.168241 0.574000
v 0.332801 0.127240 0.574000
v 0.326301 0.174740 0.567498
v 0.326301 0.174740 0.609499
v 0.332801 0.168241 0.609499
v 0.332801 0.168241 0.574000
v 0.313289 0.174740 0.567498
v 0.313289 0.174740 0.609499
v 0.306789 0.168241 0.574000
v 0.306789 0.168241 0.609499
v 0.306789 0.127240 0.574000
v 0.306789 0.168241 0.574000
v 0.313289 0.174740 0.567498
v 0.313289 0.127240 0.567498
v 0.332801 0.155239 0.586999
v 0.332801 0.127240 0.586999
v 0.332801 0.127240 0.574000
v 0.332801 0.168241 0.574000
v 0.332801 0.155239 0.609499
v 0.332801 0.168241 0.609499
v 0.306789 0.168241 0.574000
v 0.306789 0.127240 0.574000
v 0.306789 0.127240 0.586999
v 0.306789 0.155239 0.586999
v 0.306789 0.168241 0.609499
v 0.306789 0.155239 0.609499
v 0.401880 0.227006 0.615003
v 0.380379 0.227006 0.615003
v 0.373880 0.220508 0.608501
v 0.401880 0.220508 0.608501
v 0.380379 0.227006 0.615003
v 0.380379 0.227006 0.631002
v 0.373880 0.220508 0.631002
v 0.373880 0.220508 0.608501
v 0.380379 0.240009 0.615003
v 0.380379 0.240009 0.631002
v 0.373880 0.246507 0.608501
v 0.373880 0.246507 0.631002
v 0.401880 0.246507 0.608501
v 0.373880 0.246507 0.608501
v 0.380379 0.240009 0.615003
v 0.401880 0.240009 0.615003
v 0.401880 0.240009 0.615003
v 0.401880 0.227006 0.615003
v 0.401880 0.220508 0.608501
v 0.401880 0.220508 0.595503
v 0.401880 0.227006 0.589001
v 0.401880 0.240009 0.589001
v 0.401880 0.246507 0.595503
v 0.401880 0.246507 0.608501
v 0.401880 0.240009 0.589001
v 0.354381 0.240009 0.589001
v 0.360881 0.246507 0.595503
v 0.401880 0.246507 0.595503
v 0.354381 0.240009 0.589001
v 0.354381 0.240009 0.631002
v 0.360881 0.246507 0.631002
v 0.360881 0.246507 0.595503
v 0.354381 0.227006 0.589001
v 0.354381 0.227006 0.631002
v 0.360881 0.220508 0.595503
v 0.360881 0.220508 0.631002
v 0.401880 0.220508 0.595503
v 0.360881 0.220508 0.595503
v 0.354381 0.227006 0.589001
v 0.401880 0.227006 0.589001
v 0.373880 0.246507 0.608501
v 0.401880 0.246507 0.608501
v 0.401880 0.246507 0.595503
v 0.360881 0.246507 0.595503
v 0.373880 0.246507 0.631002
v 0.360881 0.246507 0.631002
v 0.360881 0.220508 0.595503
v 0.401880 0.220508 0.595503
v 0.401880 0.220508 0.608501
v 0.373880 0.220508 0.608501
v 0.360881 0.220508 0.631002
v 0.373880 0.220508 0.631002
vn 0.923892 0.000015 -0.382673
vn 0.923892 0.000015 -0.382673
vn 0.252735 0.000015 -0.967545
vn 0.382673 0.000015 -0.923892
vn 0.000003 0.923888 -0.382673
vn 0.000003 0.923888 -0.382673
vn 0.000003 0.382681 -0.923892
vn 0.000003 0.252735 -0.967545
vn 0.000003 0.923888 0.382666
vn 0.000003 0.923888 0.382666
vn 0.000003 0.252735 0.967538
vn 0.000003 0.382681 0.923885
vn 0.382673 0.000015 0.923885
vn 0.252735 0.000015 0.967538
vn 0.923892 0.000015 0.382666
vn 0.923892 0.000015 0.382666
vn 0.000003 1.000000 -0.000003
vn 0.000003 1.000000 -0.000003
vn 0.000003 1.000000 -0.000003
vn 0.000003 1.000000 -0.000003
vn 0.000003 1.000000 -0.000003
vn 0.000003 1.000000 -0.000003
vn 0.000003 1.000000 -0.000003
vn 0.000003 1.000000 -0.000003
vn -0.923885 0.000015 0.382666
vn -0.923885 0.000015 0.382666
vn -0.252728 0.000015 0.967538
vn -0.382666 0.000015 0.923885
vn 0.000003 -0.923888 0.382666
vn 0.000003 -0.923888 0.382666
vn 0.000003 -0.382681 0.923885
vn 0.000003 -0.252735 0.967538
vn 0.000003 -0.923888 -0.382673
vn 0.000003 -0.923888 -0.382673
vn 0.000003 -0.252735 -0.967545
vn 0.000003 -0.382681 -0.923892
vn -0.382666 0.000015 -0.923892
vn -0.252728 0.000015 -0.967545
vn -0.923885 0.000015 -0.382673
vn -0.923885 0.000015 -0.382673
vn 0.198754 0.198749 0.959673
vn 0.198754 0.198749 0.959673
vn 0.198754 0.198749 0.959673
vn 0.198754 0.198749 0.959673
vn 0.198754 0.198749 0.959673
vn 0.198754 0.198749 0.959673
vn -0.198747 -0.198749 -0.959679
vn -0.198747 -0.198749 -0.959679
vn -0.198747 -0.198749 -0.959679
vn -0.198747 -0.198749 -0.959679
vn -0.198747 -0.198749 -0.959679
vn -0.198747 -0.198749 -0.959679
vn 0.923892 -0.382681 -0.000003
vn 0.923892 -0.382681 -0.000003
vn 0.252735 -0.967529 -0.000003
vn 0.382673 -0.923888 -0.000003
vn 0.000003 -0.382681 -0.923892
vn 0.000003 -0.382681 -0.923892
vn 0.000003 -0.923888 -0.382673
vn 0.000003 -0.967529 -0.252735
vn 0.000003 0.382681 -0.923892
vn 0.000003 0.382681 -0.923892
vn 0.000003 0.967529 -0.252735
vn 0.000003 0.923888 -0.382673
vn 0.382673 0.923888 -0.000003
vn 0.252735 0.967529 -0.000003
vn 0.923892 0.382681 -0.000003
vn 0.923892 0.382681 -0.000003
vn 0.000003 0.000015 -1.000000
vn 0.000003 0.000015 -1.000000
vn 0.000003 0.000015 -1.000000
vn 0.000003 0.000015 -1.000000
vn 0.000003 0.000015 -1.000000
vn 0.000003 0.000015 -1.000000
vn 0.000003 0.000015 -1.000000
vn 0.000003 0.000015 -1.000000
vn -0.923885 0.382681 -0.000003
vn -0.923885 0.382681 -0.000003
vn -0.252728 0.967529 -0.000003
vn -0.382666 0.923888 -0.000003
vn 0.000003 0.382681 0.923885
vn 0.000003 0.382681 0.923885
vn 0.000003 0.923888 0.382666
vn 0.000003 0.967529 0.252728
vn 0.000003 -0.382681 0.923885
vn 0.000003 -0.382681 0.923885
vn 0.000003 -0.967529 0.252728
vn 0.000003 -0.923888 0.382666
vn -0.382666 -0.923888 -0.000003
vn -0.252728 -0.967529 -0.000003
vn -0.923885 -0.382681 -0.000003
vn -0.923885 -0.382681 -0.000003
vn 0.198754 0.959686 -0.198754
vn 0.198754 0.959686 -0.198754
vn 0.198754 0.959686 -0.198754
vn 0.198754 0.959686 -0.198754
vn 0.198754 0.959686 -0.198754
vn 0.198754 0.959686 -0.198754
vn -0.198747 -0.959686 0.198747
vn -0.198747 -0.959686 0.198747
vn -0.198747 -0.959686 0.198747
vn -0.198747 -0.959686 0.198747
vn -0.198747 -0.959686 0.198747
vn -0.198747 -0.959686 0.198747
vn -0.490358 0.195117 0.849399
vn -0.490358 -0.195117 0.849399
vn -0.490358 -0.195117 0.849399
vn -0.490358 0.195117 0.849399
vn -0.353514 0.707149 0.612340
vn -0.353514 0.707149 0.612340
vn -0.097540 0.980774 0.168964
vn -0.097540 0.980774 0.168964
vn 0.097547 0.980774 -0.168941
vn 0.097547 0.980774 -0.168941
vn 0.353521 0.707149 -0.612347
vn 0.353521 0.707149 -0.612347
vn 0.490364 0.195117 -0.849406
vn 0.490364 0.195117 -0.849406
vn 0.490364 -0.195117 -0.849406
vn 0.490364 -0.195117 -0.849406
vn 0.353521 -0.707149 -0.612347
vn 0.353521 -0.707149 -0.612347
vn 0.097547 -0.980774 -0.168941
vn 0.097547 -0.980774 -0.168941
vn -0.097540 -0.980774 0.168964
vn -0.097540 -0.980774 0.168964
vn 0.866039 0.000015 0.499995
vn 0.866039 0.000015 0.499995
vn 0.866039 0.000015 0.499995
vn 0.866039 0.000015 0.499995
vn 0.866039 0.000015 0.499995
vn 0.866039 0.000015 0.499995
vn 0.866039 0.000015 0.499995
vn 0.866039 0.000015 0.499995
vn 0.866039 0.000015 0.499995
vn 0.866039 0.000015 0.499995
vn 0.866039 0.000015 0.499995
vn 0.866039 0.000015 0.499995
vn -0.353514 -0.707149 0.612340
vn -0.353514 -0.707149 0.612340
vn -0.866032 0.000015 -0.499972
vn -0.866032 0.000015 -0.499972
vn -0.866032 0.000015 -0.499972
vn -0.866032 0.000015 -0.499972
vn -0.866032 0.000015 -0.499972
vn -0.866032 0.000015 -0.499972
vn -0.866032 0.000015 -0.499972
vn -0.866032 0.000015 -0.499972
vn -0.866032 0.000015 -0.499972
vn -0.866032 0.000015 -0.499972
vn -0.866032 0.000015 -0.499972
vn -0.866032 0.000015 -0.499972
vn -0.382666 0.000015 0.923885
vn -0.382666 0.000015 0.923885
vn -0.967538 0.000015 0.252728
vn -0.923885 0.000015 0.382666
vn -0.382666 -0.923888 -0.000003
vn -0.382666 -0.923888 -0.000003
vn -0.923885 -0.382681 -0.000003
vn -0.967538 -0.252735 -0.000003
vn 0.382673 -0.923888 -0.000003
vn 0.382673 -0.923888 -0.000003
vn 0.967545 -0.252735 -0.000003
vn 0.923892 -0.382681 -0.000003
vn 0.923892 0.000015 0.382666
vn 0.967545 0.000015 0.252728
vn 0.382673 0.000015 0.923885
vn 0.382673 0.000015 0.923885
vn 0.000003 -1.000000 -0.000003
vn 0.000003 -1.000000 -0.000003
vn 0.000003 -1.000000 -0.000003
vn 0.000003 -1.000000 -0.000003
vn 0.000003 -1.000000 -0.000003
vn 0.000003 -1.000000 -0.000003
vn 0.000003 -1.000000 -0.000003
vn 0.000003 -1.000000 -0.000003
vn 0.382673 0.000015 -0.923892
vn 0.382673 0.000015 -0.923892
vn 0.967545 0.000015 -0.252735
vn 0.923892 0.000015 -0.382673
vn 0.382673 0.923888 -0.000003
vn 0.382673 0.923888 -0.000003
vn 0.923892 0.382681 -0.000003
vn 0.967545 0.252735 -0.000003
vn -0.382666 0.923888 -0.000003
vn -0.382666 0.923888 -0.000003
vn -0.967538 0.252735 -0.000003
vn -0.923885 0.382681 -0.000003
vn -0.923885 0.000015 -0.382673
vn -0.967538 0.000015 -0.252735
vn -0.382666 0.000015 -0.923892
vn -0.382666 0.000015 -0.923892
vn 0.959680 -0.198749 0.198747
vn 0.959680 -0.198749 0.198747
vn 0.959680 -0.198749 0.198747
vn 0.959680 -0.198749 0.198747
vn 0.959680 -0.198749 0.198747
vn 0.959680 -0.198749 0.198747
vn -0.959673 0.198749 -0.198754
vn -0.959673 0.198749 -0.198754
vn -0.959673 0.198749 -0.198754
vn -0.959673 0.198749 -0.198754
vn -0.959673 0.198749 -0.198754
vn -0.959673 0.198749 -0.198754
vn 0.000003 -0.382681 0.923885
vn 0.000003 -0.382681 0.923885
vn 0.000003 -0.967529 0.252728
vn 0.000003 -0.923888 0.382666
vn 0.923892 -0.382681 -0.000003
vn 0.923892 -0.382681 -0.000003
vn 0.382673 -0.923888 -0.000003
vn 0.252735 -0.967529 -0.000003
vn 0.923892 0.382681 -0.000003
vn 0.923892 0.382681 -0.000003
vn 0.252735 0.967529 -0.000003
vn 0.382673 0.923888 -0.000003
vn 0.000003 0.923888 0.382666
vn 0.000003 0.967529 0.252728
vn 0.000003 0.382681 0.923885
vn 0.000003 0.382681 0.923885
vn 1.000000 0.000015 -0.000003
vn 1.000000 0.000015 -0.000003
vn 1.000000 0.000015 -0.000003
vn 1.000000 0.000015 -0.000003
vn 1.000000 0.000015 -0.000003
vn 1.000000 0.000015 -0.000003
vn 1.000000 0.000015 -0.000003
vn 1.000000 0.000015 -0.000003
vn 0.000003 0.382681 -0.923892
vn 0.000003 0.382681 -0.923892
vn 0.000003 0.967529 -0.252735
vn 0.000003 0.923888 -0.382673
vn -0.923885 0.382681 -0.000003
vn -0.923885 0.382681 -0.000003
vn -0.382666 0.923888 -0.000003
vn -0.252728 0.967529 -0.000003
vn -0.923885 -0.382681 -0.000003
vn -0.923885 -0.382681 -0.000003
vn -0.252728 -0.967529 -0.000003
vn -0.382666 -0.923888 -0.000003
vn 0.000003 -0.923888 -0.382673
vn 0.000003 -0.967529 -0.252735
vn 0.000003 -0.382681 -0.923892
vn 0.000003 -0.382681 -0.923892
vn 0.198754 0.959686 0.198747
vn 0.198754 0.959686 0.198747
vn 0.198754 0.959686 0.198747
vn 0.198754 0.959686 0.198747
vn 0.198754 0.959686 0.198747
vn 0.198754 0.959686 0.198747
vn -0.198747 -0.959686 -0.198754
vn -0.198747 -0.959686 -0.198754
vn -0.198747 -0.959686 -0.198754
vn -0.198747 -0.959686 -0.198754
vn -0.198747 -0.959686 -0.198754
vn -0.198747 -0.959686 -0.198754

g prd00000005_oNWWNOk+++++3++-ID+HN_explode_3
usemtl Material_127_127_127_255
f 5//5 7//7 8//8
f 7//7 5//5 6//6
f 5//5 9//9 6//6
f 6//6 9//9 10//10
f 9//9 11//11 10//10
f 10//10 11//11 12//12
f 3//3 1//1 2//2
f 1//1 16//16 2//2
f 2//2 16//16 15//15
f 16//16 13//13 15//15
f 15//15 13//13 14//14
f 4//4 1//1 3//3
f 29//29 31//31 32//32
f 31//31 29//29 30//30
f 29//29 33//33 30//30
f 30//30 33//33 34//34
f 33//33 35//35 34//34
f 34//34 35//35 36//36
f 25//25 27//27 28//28
f 27//27 25//25 26//26
f 25//25 40//40 26//26
f 26//26 40//40 39//39
f 40//40 37//37 39//39
f 39//39 37//37 38//38
f 19//19 17//17 18//18
f 20//20 17//17 19//19
f 21//21 17//17 20//20
f 22//22 17//17 21//21
f 17//17 23//23 24//24
f 23//23 17//17 22//22
f 43//43 41//41 42//42
f 46//46 45//45 44//44
f 45//45 41//41 44//44
f 44//44 41//41 43//43
f 49//49 47//47 48//48
f 52//52 51//51 50//50
f 51//51 47//47 50//50
f 50//50 47//47 49//49
f 57//57 59//59 60//60
f 59//59 57//57 58//58
f 57//57 61//61 58//58
f 58//58 61//61 62//62
f 61//61 63//63 62//62
f 62//62 63//63 64//64
f 55//55 53//53 54//54
f 53//53 68//68 54//54
f 54//54 68//68 67//67
f 68//68 65//65 67//67
f 67//67 65//65 66//66
f 56//56 53//53 55//55
f 81//81 83//83 84//84
f 83//83 81//81 82//82
f 81//81 85//85 82//82
f 82//82 85//85 86//86
f 85//85 87//87 86//86
f 86//86 87//87 88//88
f 77//77 79//79 80//80
f 79//79 77//77 78//78
f 77//77 92//92 78//78
f 78//78 92//92 91//91
f 92//92 89//89 91//91
f 91//91 89//89 90//90
f 71//71 69//69 70//70
f 72//72 69//69 71//71
f 73//73 69//69 72//72
f 74//74 69//69 73//73
f 69//69 75//75 76//76
f 75//75 69//69 74//74
f 95//95 93//93 94//94
f 98//98 97//97 96//96
f 97//97 93//93 96//96
f 96//96 93//93 95//95
f 101//101 99//99 100//100
f 104//104 103//103 102//102
f 103//103 99//99 102//102
f 102//102 99//99 101//101
f 129//129 127//127 128//128
f 130//130 127//127 129//129
f 131//131 127//127 130//130
f 132//132 127//127 131//131
f 133//133 127//127 132//132
f 134//134 127//127 133//133
f 135//135 127//127 134//134
f 136//136 127//127 135//135
f 127//127 137//137 138//138
f 137//137 127//127 136//136
f 111//111 109//109 110//110
f 110//110 109//109 108//108
f 109//109 105//105 108//108
f 108//108 105//105 107//107
f 105//105 106//106 107//107
f 107//107 106//106 140//140
f 106//106 139//139 140//140
f 140//140 139//139 126//126
f 139//139 125//125 126//126
f 126//126 125//125 124//124
f 116//116 115//115 114//114
f 115//115 116//116 117//117
f 116//116 118//118 117//117
f 117//117 118//118 119//119
f 118//118 120//120 119//119
f 119//119 120//120 121//121
f 120//120 122//122 121//121
f 121//121 122//122 123//123
f 122//122 124//124 123//123
f 123//123 124//124 125//125
f 112//112 111//111 110//110
f 111//111 112//112 113//113
f 112//112 114//114 113//113
f 113//113 114//114 115//115
f 143//143 141//141 142//142
f 144//144 141//141 143//143
f 145//145 141//141 144//144
f 146//146 141//141 145//145
f 147//147 141//141 146//146
f 148//148 141//141 147//147
f 149//149 141//141 148//148
f 150//150 141//141 149//149
f 141//141 151//151 152//152
f 151//151 141//141 150//150
f 157//157 159//159 160//160
f 159//159 157//157 158//158
f 157//157 161//161 158//158
f 158//158 161//161 162//162
f 161//161 163//163 162//162
f 162//162 163//163 164//164
f 155//155 153//153 154//154
f 153//153 168//168 154//154
f 154//154 168//168 167//167
f 168//168 165//165 167//167
f 167//167 165//165 166//166
f 156//156 153//153 155//155
f 181//181 183//183 184//184
f 183//183 181//181 182//182
f 181//181 185//185 182//182
f 182//182 185//185 186//186
f 185//185 187//187 186//186
f 186//186 187//187 188//188
f 177//177 179//179 180//180
f 179//179 177//177 178//178
f 177//177 192//192 178//178
f 178//178 192//192 191//191
f 192//192 189//189 191//191
f 191//191 189//189 190//190
f 171//171 169//169 170//170
f 172//172 169//169 171//171
f 173//173 169//169 172//172
f 174//174 169//169 173//173
f 169//169 175//175 176//176
f 175//175 169//169 174//174
f 195//195 193//193 194//194
f 198//198 197//197 196//196
f 197//197 193//193 196//196
f 196//196 193//193 195//195
f 201//201 199//199 200//200
f 204//204 203//203 202//202
f 203//203 199//199 202//202
f 202//202 199//199 201//201
f 209//209 211//211 212//212
f 211//211 209//209 210//210
f 209//209 213//213 210//210
f 210//210 213//213 214//214
f 213//213 215//215 214//214
f 214//214 215//215 216//216
f 207//207 205//205 206//206
f 205//205 220//220 206//206
f 206//206 220//220 219//219
f 220//220 217//217 219//219
f 219//219 217//217 218//218
f 208//208 205//205 207//207
f 233//233 235//235 236//236
f 235//235 233//233 234//234
f 233//233 237//237 234//234
f 234//234 237//237 238//238
f 237//237 239//239 238//238
f 238//238 239//239 240//240
f 229//229 231//231 232//232
f 231//231 229//229 230//230
f 229//229 244//244 230//230
f 230//230 244//244 243//243
f 244//244 241//241 243//243
f 243//243 241//241 242//242
f 223//223 221//221 222//222
f 224//224 221//221 223//223
f 225//225 221//221 224//224
f 226//226 221//221 225//225
f 221//221 227//227 228//228
f 227//227 221//221 226//226
f 247//247 245//245 246//246
f 250//250 249//249 248//248
f 249//249 245//245 248//248
f 248//248 245//245 247//247
f 253//253 251//251 252//252
f 256//256 255//255 254//254
f 255//255 251//251 254//254
f 254//254 251//251 253//253
