
mtllib 2_1.mtl
v 0.371538 -0.393200 0.899995
v 0.372999 -0.393200 0.898534
v 0.374998 -0.393200 0.897995
v 0.376998 -0.393200 0.898534
v 0.378463 -0.393200 0.899995
v 0.379002 -0.393200 0.901996
v 0.378463 -0.393200 0.903997
v 0.376998 -0.393200 0.905458
v 0.374998 -0.393200 0.905997
v 0.372999 -0.393200 0.905458
v 0.371538 -0.393200 0.903997
v 0.370999 -0.393200 0.901996
v 0.341535 -0.393200 0.899995
v 0.343001 -0.393200 0.898534
v 0.345000 -0.393200 0.897995
v 0.347000 -0.393200 0.898534
v 0.348465 -0.393200 0.899995
v 0.348999 -0.393200 0.901996
v 0.348465 -0.393200 0.903997
v 0.347000 -0.393200 0.905458
v 0.345000 -0.393200 0.905997
v 0.343001 -0.393200 0.905458
v 0.341535 -0.393200 0.903997
v 0.341001 -0.393200 0.901996
v 0.341535 -0.392699 1.580998
v 0.343001 -0.392699 1.579537
v 0.345000 -0.392699 1.578998
v 0.347000 -0.392699 1.579537
v 0.348465 -0.392699 1.580998
v 0.348999 -0.392699 1.582999
v 0.348465 -0.392699 1.585000
v 0.347000 -0.392699 1.586461
v 0.345000 -0.392699 1.587000
v 0.343001 -0.392699 1.586461
v 0.341535 -0.392699 1.585000
v 0.341001 -0.392699 1.582999
v 0.371538 -0.392699 1.580998
v 0.372999 -0.392699 1.579537
v 0.374998 -0.392699 1.578998
v 0.376998 -0.392699 1.579537
v 0.378463 -0.392699 1.580998
v 0.379002 -0.392699 1.582999
v 0.378463 -0.392699 1.585000
v 0.376998 -0.392699 1.586461
v 0.374998 -0.392699 1.587000
v 0.372999 -0.392699 1.586461
v 0.371538 -0.392699 1.585000
v 0.370999 -0.392699 1.582999
v 0.610915 -0.035998 0.657122
v 0.610915 -0.035910 0.657122
v 0.612949 -0.035910 0.693488
v 0.612949 -0.035998 0.693488
v 0.612949 -0.035910 0.693488
v 0.612224 -0.041979 0.693531
v 0.612949 -0.035998 0.693488
v 0.612949 -0.035910 0.693488
v 0.612204 -0.029935 0.693531
v 0.610058 -0.024316 0.693658
v 0.606627 -0.019373 0.693843
v 0.602118 -0.015391 0.694098
v 0.596786 -0.012605 0.694396
v 0.590949 -0.011177 0.694723
v 0.584936 -0.011188 0.695063
v 0.579104 -0.012634 0.695389
v 0.573786 -0.015444 0.695687
v 0.569292 -0.019437 0.695929
v 0.565881 -0.024392 0.696127
v 0.563750 -0.030023 0.696241
v 0.563029 -0.035998 0.696283
v 0.563029 -0.036091 0.696283
v 0.563774 -0.042060 0.696241
v 0.565921 -0.047686 0.696127
v 0.569351 -0.052629 0.695929
v 0.573860 -0.056610 0.695673
v 0.579187 -0.059397 0.695375
v 0.585024 -0.060825 0.695049
v 0.591037 -0.060813 0.694723
v 0.596869 -0.059362 0.694396
v 0.602187 -0.056558 0.694098
v 0.606686 -0.052565 0.693843
v 0.610097 -0.047604 0.693658
v 0.582907 -0.011188 0.658682
v 0.588915 -0.011177 0.658356
v 0.594757 -0.012605 0.658030
v 0.600084 -0.015391 0.657732
v 0.604593 -0.019373 0.657476
v 0.608019 -0.024316 0.657278
v 0.610170 -0.029935 0.657164
v 0.610915 -0.035910 0.657122
v 0.610915 -0.035998 0.657122
v 0.610190 -0.041979 0.657164
v 0.608063 -0.047604 0.657278
v 0.604652 -0.052565 0.657476
v 0.600158 -0.056558 0.657718
v 0.594836 -0.059362 0.658016
v 0.589004 -0.060813 0.658342
v 0.582995 -0.060825 0.658682
v 0.577153 -0.059397 0.659009
v 0.571826 -0.056610 0.659307
v 0.567317 -0.052629 0.659562
v 0.563887 -0.047686 0.659747
v 0.561740 -0.042060 0.659874
v 0.560995 -0.036091 0.659917
v 0.560995 -0.035998 0.659917
v 0.561716 -0.030023 0.659874
v 0.563848 -0.024392 0.659747
v 0.567259 -0.019437 0.659562
v 0.571753 -0.015444 0.659307
v 0.577070 -0.012634 0.659009
v 0.610170 -0.029935 0.657164
v 0.612204 -0.029935 0.693531
v 0.608019 -0.024316 0.657278
v 0.610058 -0.024316 0.693658
v 0.604593 -0.019373 0.657476
v 0.606627 -0.019373 0.693843
v 0.600084 -0.015391 0.657732
v 0.602118 -0.015391 0.694098
v 0.594757 -0.012605 0.658030
v 0.596786 -0.012605 0.694396
v 0.588915 -0.011177 0.658356
v 0.590949 -0.011177 0.694723
v 0.582907 -0.011188 0.658682
v 0.584936 -0.011188 0.695063
v 0.577070 -0.012634 0.659009
v 0.579104 -0.012634 0.695389
v 0.571753 -0.015444 0.659307
v 0.573786 -0.015444 0.695687
v 0.567259 -0.019437 0.659562
v 0.569292 -0.019437 0.695929
v 0.563848 -0.024392 0.659747
v 0.565881 -0.024392 0.696127
v 0.561716 -0.030023 0.659874
v 0.563750 -0.030023 0.696241
v 0.560995 -0.035998 0.659917
v 0.563029 -0.035998 0.696283
v 0.560995 -0.036091 0.659917
v 0.563029 -0.036091 0.696283
v 0.561740 -0.042060 0.659874
v 0.563774 -0.042060 0.696241
v 0.563887 -0.047686 0.659747
v 0.565921 -0.047686 0.696127
v 0.567317 -0.052629 0.659562
v 0.569351 -0.052629 0.695929
v 0.571826 -0.056610 0.659307
v 0.573860 -0.056610 0.695673
v 0.577153 -0.059397 0.659009
v 0.579187 -0.059397 0.695375
v 0.582995 -0.060825 0.658682
v 0.585024 -0.060825 0.695049
v 0.589004 -0.060813 0.658342
v 0.591037 -0.060813 0.694723
v 0.594836 -0.059362 0.658016
v 0.596869 -0.059362 0.694396
v 0.600158 -0.056558 0.657718
v 0.602187 -0.056558 0.694098
v 0.604652 -0.052565 0.657476
v 0.606686 -0.052565 0.693843
v 0.608063 -0.047604 0.657278
v 0.610097 -0.047604 0.693658
v 0.610190 -0.041979 0.657164
v 0.612224 -0.041979 0.693531
v 0.292424 -0.072303 0.957206
v 0.292071 -0.067400 0.960483
v 0.291846 -0.061862 0.962526
v 0.291772 -0.055998 0.963222
v 0.291855 -0.049749 0.962427
v 0.292110 -0.043896 0.960114
v 0.292512 -0.038813 0.956411
v 0.293036 -0.034820 0.951573
v 0.293615 -0.032296 0.946266
v 0.294237 -0.031095 0.940519
v 0.294874 -0.031282 0.934645
v 0.295492 -0.032850 0.928984
v 0.296050 -0.035706 0.923847
v 0.296521 -0.039699 0.919519
v 0.296874 -0.044602 0.916256
v 0.297094 -0.050134 0.914213
v 0.297173 -0.055998 0.913518
v 0.297085 -0.062253 0.914298
v 0.296835 -0.068106 0.916625
v 0.296433 -0.073189 0.920314
v 0.295908 -0.077182 0.925167
v 0.295330 -0.079706 0.930473
v 0.294703 -0.080907 0.936220
v 0.294066 -0.080720 0.942094
v 0.293453 -0.079152 0.947742
v 0.292894 -0.076290 0.952892
v 0.324848 -0.034820 0.955020
v 0.293036 -0.034820 0.951573
v 0.292512 -0.038813 0.956411
v 0.324323 -0.038813 0.959873
v 0.292110 -0.043896 0.960114
v 0.323922 -0.043896 0.963576
v 0.291855 -0.049749 0.962427
v 0.323672 -0.049749 0.965889
v 0.291772 -0.055998 0.963222
v 0.323583 -0.055998 0.966684
v 0.291846 -0.061862 0.962526
v 0.323662 -0.061862 0.965989
v 0.292071 -0.067400 0.960483
v 0.323882 -0.067400 0.963945
v 0.292424 -0.072303 0.957206
v 0.324235 -0.072303 0.960668
v 0.292894 -0.076290 0.952892
v 0.324706 -0.076290 0.956340
v 0.293453 -0.079152 0.947742
v 0.325264 -0.079152 0.951204
v 0.294066 -0.080720 0.942094
v 0.325882 -0.080720 0.945542
v 0.294703 -0.080907 0.936220
v 0.326519 -0.080907 0.939682
v 0.295330 -0.079706 0.930473
v 0.327141 -0.079706 0.933921
v 0.295908 -0.077182 0.925167
v 0.327720 -0.077182 0.928615
v 0.296433 -0.073189 0.920314
v 0.328244 -0.073189 0.923776
v 0.296835 -0.068106 0.916625
v 0.328646 -0.068106 0.920073
v 0.297085 -0.062253 0.914298
v 0.328901 -0.062253 0.917760
v 0.297173 -0.055998 0.913518
v 0.328984 -0.055998 0.916965
v 0.297094 -0.050134 0.914213
v 0.328911 -0.050134 0.917661
v 0.296874 -0.044602 0.916256
v 0.328685 -0.044602 0.919704
v 0.296521 -0.039699 0.919519
v 0.328332 -0.039699 0.922982
v 0.296050 -0.035706 0.923847
v 0.327862 -0.035706 0.927309
v 0.295492 -0.032850 0.928984
v 0.327303 -0.032850 0.932446
v 0.294874 -0.031282 0.934645
v 0.326691 -0.031282 0.938107
v 0.294237 -0.031095 0.940519
v 0.326053 -0.031095 0.943967
v 0.293615 -0.032296 0.946266
v 0.325426 -0.032296 0.949714
vn 0.000013 -1.000000 0.000015
vn 0.000013 -1.000000 0.000015
vn 0.000013 -1.000000 0.000015
vn 0.000013 -1.000000 0.000015
vn 0.000013 -1.000000 0.000015
vn 0.000013 -1.000000 0.000015
vn 0.000013 -1.000000 0.000015
vn 0.000013 -1.000000 0.000015
vn 0.000013 -1.000000 0.000015
vn 0.000013 -1.000000 0.000015
vn 0.000013 -1.000000 0.000015
vn 0.000013 -1.000000 0.000015
vn 0.000013 -1.000000 0.000015
vn 0.000013 -1.000000 0.000015
vn 0.000013 -1.000000 0.000015
vn 0.000013 -1.000000 0.000015
vn 0.000013 -1.000000 0.000015
vn 0.000013 -1.000000 0.000015
vn 0.000013 -1.000000 0.000015
vn 0.000013 -1.000000 0.000015
vn 0.000013 -1.000000 0.000015
vn 0.000013 -1.000000 0.000015
vn 0.000013 -1.000000 0.000015
vn 0.000013 -1.000000 0.000015
vn 0.000013 -1.000000 0.000015
vn 0.000013 -1.000000 0.000015
vn 0.000013 -1.000000 0.000015
vn 0.000013 -1.000000 0.000015
vn 0.000013 -1.000000 0.000015
vn 0.000013 -1.000000 0.000015
vn 0.000013 -1.000000 0.000015
vn 0.000013 -1.000000 0.000015
vn 0.000013 -1.000000 0.000015
vn 0.000013 -1.000000 0.000015
vn 0.000013 -1.000000 0.000015
vn 0.000013 -1.000000 0.000015
vn 0.000013 -1.000000 0.000015
vn 0.000013 -1.000000 0.000015
vn 0.000013 -1.000000 0.000015
vn 0.000013 -1.000000 0.000015
vn 0.000013 -1.000000 0.000015
vn 0.000013 -1.000000 0.000015
vn 0.000013 -1.000000 0.000015
vn 0.000013 -1.000000 0.000015
vn 0.000013 -1.000000 0.000015
vn 0.000013 -1.000000 0.000015
vn 0.000013 -1.000000 0.000015
vn 0.000013 -1.000000 0.000015
vn 0.997777 -0.036489 -0.055746
vn 0.996529 0.062052 -0.055685
vn 0.997442 0.045024 -0.055746
vn 0.996955 -0.054766 -0.055685
vn 0.997442 0.045024 -0.055746
vn 0.055826 0.000003 0.998441
vn 0.055826 0.000003 0.998441
vn 0.055826 0.000003 0.998441
vn 0.055826 0.000003 0.998441
vn 0.055826 0.000003 0.998441
vn 0.055826 0.000003 0.998441
vn 0.055826 0.000003 0.998441
vn 0.055826 0.000003 0.998441
vn 0.055826 0.000003 0.998441
vn 0.055826 0.000003 0.998441
vn 0.055826 0.000003 0.998441
vn 0.055826 0.000003 0.998441
vn 0.055826 0.000003 0.998441
vn 0.055826 0.000003 0.998441
vn 0.055826 0.000003 0.998441
vn 0.055826 0.000003 0.998441
vn 0.055826 0.000003 0.998441
vn 0.055826 0.000003 0.998441
vn 0.055826 0.000003 0.998441
vn 0.055826 0.000003 0.998441
vn 0.055826 0.000003 0.998441
vn 0.055826 0.000003 0.998441
vn 0.055826 0.000003 0.998441
vn 0.055826 0.000003 0.998441
vn 0.055826 0.000003 0.998441
vn 0.055826 0.000003 0.998441
vn 0.055826 0.000003 0.998441
vn 0.055826 0.000003 0.998441
vn -0.055831 0.000003 -0.998441
vn -0.055831 0.000003 -0.998441
vn -0.055831 0.000003 -0.998441
vn -0.055831 0.000003 -0.998441
vn -0.055831 0.000003 -0.998441
vn -0.055831 0.000003 -0.998441
vn -0.055831 0.000003 -0.998441
vn -0.055831 0.000003 -0.998441
vn -0.055831 0.000003 -0.998441
vn -0.055831 0.000003 -0.998441
vn -0.055831 0.000003 -0.998441
vn -0.055831 0.000003 -0.998441
vn -0.055831 0.000003 -0.998441
vn -0.055831 0.000003 -0.998441
vn -0.055831 0.000003 -0.998441
vn -0.055831 0.000003 -0.998441
vn -0.055831 0.000003 -0.998441
vn -0.055831 0.000003 -0.998441
vn -0.055831 0.000003 -0.998441
vn -0.055831 0.000003 -0.998441
vn -0.055831 0.000003 -0.998441
vn -0.055831 0.000003 -0.998441
vn -0.055831 0.000003 -0.998441
vn -0.055831 0.000003 -0.998441
vn -0.055831 0.000003 -0.998441
vn -0.055831 0.000003 -0.998441
vn -0.055831 0.000003 -0.998441
vn -0.055831 0.000003 -0.998441
vn 0.968653 0.242411 -0.054131
vn 0.968653 0.242411 -0.054131
vn 0.882681 0.467366 -0.049347
vn 0.882681 0.467366 -0.049347
vn 0.745551 0.665149 -0.041668
vn 0.745551 0.665149 -0.041668
vn 0.565147 0.824399 -0.031583
vn 0.565147 0.824399 -0.031583
vn 0.351997 0.935794 -0.019669
vn 0.351997 0.935794 -0.019669
vn 0.118457 0.992939 -0.006597
vn 0.118457 0.992939 -0.006597
vn -0.121961 0.992513 0.006810
vn -0.121961 0.992513 0.006810
vn -0.355318 0.934546 0.019852
vn -0.355318 0.934546 0.019852
vn -0.568043 0.822388 0.031735
vn -0.568043 0.822388 0.031735
vn -0.747899 0.662499 0.041790
vn -0.747899 0.662499 0.041790
vn -0.884329 0.464228 0.049408
vn -0.884329 0.464228 0.049408
vn -0.969510 0.239030 0.054192
vn -0.969510 0.239030 0.054192
vn -0.996625 0.060285 0.055715
vn -0.996625 0.060285 0.055715
vn -0.996503 -0.062046 0.055685
vn -0.996503 -0.062046 0.055685
vn -0.968627 -0.242497 0.054161
vn -0.968627 -0.242497 0.054161
vn -0.882685 -0.467360 0.049347
vn -0.882685 -0.467360 0.049347
vn -0.745556 -0.665143 0.041668
vn -0.745556 -0.665143 0.041668
vn -0.565151 -0.824393 0.031583
vn -0.565151 -0.824393 0.031583
vn -0.352001 -0.935788 0.019669
vn -0.352001 -0.935788 0.019669
vn -0.118431 -0.992933 0.006597
vn -0.118431 -0.992933 0.006597
vn 0.121956 -0.992507 -0.006810
vn 0.121956 -0.992507 -0.006810
vn 0.355314 -0.934539 -0.019882
vn 0.355314 -0.934539 -0.019882
vn 0.568038 -0.822382 -0.031735
vn 0.568038 -0.822382 -0.031735
vn 0.747895 -0.662493 -0.041790
vn 0.747895 -0.662493 -0.041790
vn 0.884324 -0.464253 -0.049438
vn 0.884324 -0.464253 -0.049438
vn 0.969505 -0.239055 -0.054192
vn 0.969505 -0.239055 -0.054192
vn -0.994160 0.000003 -0.107972
vn -0.994160 0.000003 -0.107972
vn -0.994160 0.000003 -0.107972
vn -0.994160 0.000003 -0.107972
vn -0.994160 0.000003 -0.107972
vn -0.994160 0.000003 -0.107972
vn -0.994160 0.000003 -0.107972
vn -0.994160 0.000003 -0.107972
vn -0.994160 0.000003 -0.107972
vn -0.994160 0.000003 -0.107972
vn -0.994160 0.000003 -0.107972
vn -0.994160 0.000003 -0.107972
vn -0.994160 0.000003 -0.107972
vn -0.994160 0.000003 -0.107972
vn -0.994160 0.000003 -0.107972
vn -0.994160 0.000003 -0.107972
vn -0.994160 0.000003 -0.107972
vn -0.994160 0.000003 -0.107972
vn -0.994160 0.000003 -0.107972
vn -0.994160 0.000003 -0.107972
vn -0.994160 0.000003 -0.107972
vn -0.994160 0.000003 -0.107972
vn -0.994160 0.000003 -0.107972
vn -0.994160 0.000003 -0.107972
vn -0.994160 0.000003 -0.107972
vn -0.994160 0.000003 -0.107972
vn -0.057718 0.845112 0.531481
vn -0.057718 0.845112 0.531481
vn -0.078412 0.687507 0.721922
vn -0.078412 0.687507 0.721922
vn -0.094480 0.484089 0.869917
vn -0.094480 0.484089 0.869917
vn -0.104554 0.249996 0.962577
vn -0.104554 0.249996 0.962577
vn -0.107962 0.003963 0.994144
vn -0.107962 0.003963 0.994144
vn -0.104980 -0.234577 0.966416
vn -0.104980 -0.234577 0.966416
vn -0.096093 -0.455998 0.884786
vn -0.096093 -0.455998 0.884786
vn -0.081881 -0.652014 0.753763
vn -0.081881 -0.652014 0.753763
vn -0.063074 -0.811690 0.580691
vn -0.063074 -0.811690 0.580691
vn -0.040736 -0.926071 0.375168
vn -0.040736 -0.926071 0.375168
vn -0.016116 -0.988729 0.148772
vn -0.016116 -0.988729 0.148772
vn 0.009295 -0.996253 -0.085911
vn 0.009295 -0.996253 -0.085911
vn 0.034310 -0.948186 -0.315842
vn 0.034310 -0.948186 -0.315842
vn 0.057713 -0.845106 -0.531481
vn 0.057713 -0.845106 -0.531481
vn 0.078407 -0.687531 -0.721921
vn 0.078407 -0.687531 -0.721921
vn 0.094476 -0.484174 -0.869856
vn 0.094476 -0.484174 -0.869856
vn 0.104549 -0.250021 -0.962577
vn 0.104549 -0.250021 -0.962577
vn 0.107988 -0.003865 -0.994145
vn 0.107988 -0.003865 -0.994145
vn 0.104975 0.234553 -0.966416
vn 0.104975 0.234553 -0.966416
vn 0.096089 0.455943 -0.884817
vn 0.096089 0.455943 -0.884817
vn 0.081877 0.652020 -0.753763
vn 0.081877 0.652020 -0.753763
vn 0.063039 0.811727 -0.580630
vn 0.063039 0.811727 -0.580630
vn 0.040732 0.926077 -0.375168
vn 0.040732 0.926077 -0.375168
vn 0.016112 0.988736 -0.148772
vn 0.016112 0.988736 -0.148772
vn -0.009299 0.996259 0.085911
vn -0.009299 0.996259 0.085911
vn -0.034315 0.948192 0.315842
vn -0.034315 0.948192 0.315842

g prd00000007_oNWWNOk+++++3++-ID+HN_explode_2
usemtl Material_76_76_76_255
f 3//3 1//1 2//2
f 4//4 1//1 3//3
f 5//5 1//1 4//4
f 6//6 1//1 5//5
f 7//7 1//1 6//6
f 8//8 1//1 7//7
f 9//9 1//1 8//8
f 10//10 1//1 9//9
f 1//1 11//11 12//12
f 11//11 1//1 10//10
f 15//15 13//13 14//14
f 16//16 13//13 15//15
f 17//17 13//13 16//16
f 18//18 13//13 17//17
f 19//19 13//13 18//18
f 20//20 13//13 19//19
f 21//21 13//13 20//20
f 22//22 13//13 21//21
f 13//13 23//23 24//24
f 23//23 13//13 22//22
f 27//27 25//25 26//26
f 28//28 25//25 27//27
f 29//29 25//25 28//28
f 30//30 25//25 29//29
f 31//31 25//25 30//30
f 32//32 25//25 31//31
f 33//33 25//25 32//32
f 34//34 25//25 33//33
f 25//25 35//35 36//36
f 35//35 25//25 34//34
f 39//39 37//37 38//38
f 40//40 37//37 39//39
f 41//41 37//37 40//40
f 42//42 37//37 41//41
f 43//43 37//37 42//42
f 44//44 37//37 43//43
f 45//45 37//37 44//44
f 46//46 37//37 45//45
f 37//37 47//47 48//48
f 47//47 37//37 46//46
f 49//49 50//50 51//51
f 52//52 49//49 53//53
f 161//161 49//49 52//52
f 49//49 161//161 160//160
f 161//161 159//159 160//160
f 160//160 159//159 158//158
f 157//157 158//158 159//159
f 158//158 157//157 156//156
f 157//157 155//155 156//156
f 156//156 155//155 154//154
f 155//155 153//153 154//154
f 154//154 153//153 152//152
f 153//153 151//151 152//152
f 152//152 151//151 150//150
f 151//151 149//149 150//150
f 150//150 149//149 148//148
f 55//55 56//56 54//54
f 56//56 57//57 54//54
f 58//58 54//54 57//57
f 59//59 54//54 58//58
f 60//60 54//54 59//59
f 61//61 54//54 60//60
f 62//62 54//54 61//61
f 63//63 54//54 62//62
f 64//64 54//54 63//63
f 65//65 54//54 64//64
f 66//66 54//54 65//65
f 67//67 54//54 66//66
f 68//68 54//54 67//67
f 69//69 54//54 68//68
f 70//70 54//54 69//69
f 71//71 54//54 70//70
f 72//72 54//54 71//71
f 73//73 54//54 72//72
f 74//74 54//54 73//73
f 75//75 54//54 74//74
f 76//76 54//54 75//75
f 77//77 54//54 76//76
f 78//78 54//54 77//77
f 79//79 54//54 78//78
f 54//54 80//80 81//81
f 80//80 54//54 79//79
f 104//104 82//82 103//103
f 105//105 82//82 104//104
f 106//106 82//82 105//105
f 107//107 82//82 106//106
f 82//82 108//108 109//109
f 108//108 82//82 107//107
f 94//94 82//82 93//93
f 95//95 82//82 94//94
f 96//96 82//82 95//95
f 97//97 82//82 96//96
f 98//98 82//82 97//97
f 99//99 82//82 98//98
f 100//100 82//82 99//99
f 101//101 82//82 100//100
f 102//102 82//82 101//101
f 103//103 82//82 102//102
f 84//84 82//82 83//83
f 85//85 82//82 84//84
f 86//86 82//82 85//85
f 87//87 82//82 86//86
f 88//88 82//82 87//87
f 89//89 82//82 88//88
f 90//90 82//82 89//89
f 91//91 82//82 90//90
f 92//92 82//82 91//91
f 93//93 82//82 92//92
f 147//147 148//148 149//149
f 148//148 147//147 146//146
f 147//147 145//145 146//146
f 146//146 145//145 144//144
f 145//145 143//143 144//144
f 144//144 143//143 142//142
f 143//143 141//141 142//142
f 142//142 141//141 140//140
f 141//141 139//139 140//140
f 140//140 139//139 138//138
f 137//137 138//138 139//139
f 138//138 137//137 136//136
f 137//137 135//135 136//136
f 136//136 135//135 134//134
f 135//135 133//133 134//134
f 134//134 133//133 132//132
f 133//133 131//131 132//132
f 132//132 131//131 130//130
f 131//131 129//129 130//130
f 130//130 129//129 128//128
f 127//127 128//128 129//129
f 128//128 127//127 126//126
f 127//127 125//125 126//126
f 126//126 125//125 124//124
f 125//125 123//123 124//124
f 124//124 123//123 122//122
f 123//123 121//121 122//122
f 122//122 121//121 120//120
f 121//121 119//119 120//120
f 120//120 119//119 118//118
f 117//117 118//118 119//119
f 118//118 117//117 116//116
f 117//117 115//115 116//116
f 116//116 115//115 114//114
f 115//115 113//113 114//114
f 114//114 113//113 112//112
f 113//113 111//111 112//112
f 112//112 111//111 110//110
f 111//111 51//51 110//110
f 110//110 51//51 50//50
f 184//184 162//162 183//183
f 185//185 162//162 184//184
f 162//162 186//186 187//187
f 186//186 162//162 185//185
f 174//174 162//162 173//173
f 175//175 162//162 174//174
f 176//176 162//162 175//175
f 177//177 162//162 176//176
f 178//178 162//162 177//177
f 179//179 162//162 178//178
f 180//180 162//162 179//179
f 181//181 162//162 180//180
f 182//182 162//162 181//181
f 183//183 162//162 182//182
f 163//163 164//164 162//162
f 164//164 165//165 162//162
f 166//166 162//162 165//165
f 167//167 162//162 166//166
f 168//168 162//162 167//167
f 169//169 162//162 168//168
f 170//170 162//162 169//169
f 171//171 162//162 170//170
f 172//172 162//162 171//171
f 173//173 162//162 172//172
f 193//193 194//194 195//195
f 194//194 193//193 192//192
f 193//193 191//191 192//192
f 192//192 191//191 190//190
f 191//191 188//188 190//190
f 190//190 188//188 189//189
f 188//188 239//239 189//189
f 189//189 239//239 238//238
f 239//239 237//237 238//238
f 238//238 237//237 236//236
f 237//237 235//235 236//236
f 236//236 235//235 234//234
f 203//203 204//204 205//205
f 204//204 203//203 202//202
f 203//203 201//201 202//202
f 202//202 201//201 200//200
f 201//201 199//199 200//200
f 200//200 199//199 198//198
f 199//199 197//197 198//198
f 198//198 197//197 196//196
f 197//197 195//195 196//196
f 196//196 195//195 194//194
f 213//213 214//214 215//215
f 214//214 213//213 212//212
f 213//213 211//211 212//212
f 212//212 211//211 210//210
f 211//211 209//209 210//210
f 210//210 209//209 208//208
f 209//209 207//207 208//208
f 208//208 207//207 206//206
f 207//207 205//205 206//206
f 206//206 205//205 204//204
f 223//223 224//224 225//225
f 224//224 223//223 222//222
f 223//223 221//221 222//222
f 222//222 221//221 220//220
f 221//221 219//219 220//220
f 220//220 219//219 218//218
f 219//219 217//217 218//218
f 218//218 217//217 216//216
f 217//217 215//215 216//216
f 216//216 215//215 214//214
f 233//233 234//234 235//235
f 234//234 233//233 232//232
f 233//233 231//231 232//232
f 232//232 231//231 230//230
f 231//231 229//229 230//230
f 230//230 229//229 228//228
f 229//229 227//227 228//228
f 228//228 227//227 226//226
f 227//227 225//225 226//226
f 226//226 225//225 224//224
