
mtllib 2_2.mtl
v 0.246232 0.005000 0.561207
v 0.220171 0.005000 0.584219
v 0.199101 0.005000 0.611865
v 0.183834 0.005000 0.643097
v 0.174948 0.005000 0.676702
v 0.172791 0.005000 0.711395
v 0.177442 0.005000 0.745845
v 0.188728 0.005000 0.778726
v 0.206207 0.005000 0.808773
v 0.229219 0.005000 0.834829
v 0.256865 0.005000 0.855899
v 0.288096 0.005000 0.871166
v 0.321702 0.005000 0.880052
v 0.356395 0.005000 0.882210
v 0.390845 0.005000 0.877559
v 0.423726 0.005000 0.866272
v 0.453768 0.005000 0.848793
v 0.479829 0.005000 0.825782
v 0.500899 0.005000 0.798135
v 0.516166 0.005000 0.766904
v 0.525052 0.005000 0.733298
v 0.527210 0.005000 0.698605
v 0.522559 0.005000 0.664156
v 0.511272 0.005000 0.631274
v 0.493793 0.005000 0.601233
v 0.470782 0.005000 0.575171
v 0.443135 0.005000 0.554101
v 0.411904 0.005000 0.538834
v 0.378298 0.005000 0.529949
v 0.343605 0.005000 0.527791
v 0.309155 0.005000 0.532442
v 0.276274 0.005000 0.543728
v 0.525052 0.005000 0.733298
v 0.525052 -0.052000 0.733298
v 0.527210 -0.052000 0.698605
v 0.527210 0.005000 0.698605
v 0.522553 -0.052000 0.664156
v 0.522559 0.005000 0.664156
v 0.511272 -0.052000 0.631274
v 0.511272 0.005000 0.631274
v 0.493793 -0.052000 0.601233
v 0.493793 0.005000 0.601233
v 0.470782 -0.052000 0.575171
v 0.470782 0.005000 0.575171
v 0.443135 -0.052000 0.554101
v 0.443135 0.005000 0.554101
v 0.411904 -0.052000 0.538834
v 0.411904 0.005000 0.538834
v 0.378298 -0.052000 0.529949
v 0.378298 0.005000 0.529949
v 0.343605 -0.052000 0.527791
v 0.343605 0.005000 0.527791
v 0.309155 -0.052000 0.532447
v 0.309155 0.005000 0.532442
v 0.276274 -0.052000 0.543728
v 0.276274 0.005000 0.543728
v 0.246232 -0.052000 0.561213
v 0.246232 0.005000 0.561207
v 0.220171 -0.052000 0.584219
v 0.220171 0.005000 0.584219
v 0.199101 -0.052000 0.611865
v 0.199101 0.005000 0.611865
v 0.183834 -0.052000 0.643097
v 0.183834 0.005000 0.643097
v 0.174948 -0.052000 0.676702
v 0.174948 0.005000 0.676702
v 0.172791 -0.052000 0.711395
v 0.172791 0.005000 0.711395
v 0.177447 -0.052000 0.745845
v 0.177442 0.005000 0.745845
v 0.188728 -0.052000 0.778726
v 0.188728 0.005000 0.778726
v 0.206213 -0.052000 0.808768
v 0.206207 0.005000 0.808773
v 0.229219 -0.052000 0.834829
v 0.229219 0.005000 0.834829
v 0.256865 -0.052000 0.855899
v 0.256865 0.005000 0.855899
v 0.288096 -0.052000 0.871166
v 0.288096 0.005000 0.871166
v 0.321702 -0.052000 0.880052
v 0.321702 0.005000 0.880052
v 0.356395 -0.052000 0.882210
v 0.356395 0.005000 0.882210
v 0.390845 -0.052000 0.877553
v 0.390845 0.005000 0.877559
v 0.423726 -0.052000 0.866272
v 0.423726 0.005000 0.866272
v 0.453768 -0.052000 0.848793
v 0.453768 0.005000 0.848793
v 0.479829 -0.052000 0.825782
v 0.479829 0.005000 0.825782
v 0.500899 -0.052000 0.798135
v 0.500899 0.005000 0.798135
v 0.516166 -0.052000 0.766904
v 0.516166 0.005000 0.766904
vn -0.000015 1.000000 0.000015
vn -0.000015 1.000000 0.000015
vn -0.000015 1.000000 0.000015
vn -0.000015 1.000000 0.000015
vn -0.000015 1.000000 0.000015
vn -0.000015 1.000000 0.000015
vn -0.000015 1.000000 0.000015
vn -0.000015 1.000000 0.000015
vn -0.000015 1.000000 0.000015
vn -0.000015 1.000000 0.000015
vn -0.000015 1.000000 0.000015
vn -0.000015 1.000000 0.000015
vn -0.000015 1.000000 0.000015
vn -0.000015 1.000000 0.000015
vn -0.000015 1.000000 0.000015
vn -0.000015 1.000000 0.000015
vn -0.000015 1.000000 0.000015
vn -0.000015 1.000000 0.000015
vn -0.000015 1.000000 0.000015
vn -0.000015 1.000000 0.000015
vn -0.000015 1.000000 0.000015
vn -0.000015 1.000000 0.000015
vn -0.000015 1.000000 0.000015
vn -0.000015 1.000000 0.000015
vn -0.000015 1.000000 0.000015
vn -0.000015 1.000000 0.000015
vn -0.000015 1.000000 0.000015
vn -0.000015 1.000000 0.000015
vn -0.000015 1.000000 0.000015
vn -0.000015 1.000000 0.000015
vn -0.000015 1.000000 0.000015
vn -0.000015 1.000000 0.000015
vn 0.987181 0.000000 0.159582
vn 0.987181 0.000000 0.159582
vn 0.999350 0.000000 -0.036034
vn 0.999350 0.000000 -0.036034
vn 0.973122 0.000000 -0.230338
vn 0.973122 0.000000 -0.230338
vn 0.909472 0.000000 -0.415767
vn 0.909472 0.000000 -0.415767
vn 0.810902 0.000000 -0.585185
vn 0.810902 0.000000 -0.585185
vn 0.681102 0.000000 -0.732186
vn 0.681102 0.000000 -0.732186
vn 0.525195 0.000000 -0.850976
vn 0.525195 0.000000 -0.850976
vn 0.349098 0.000000 -0.937073
vn 0.349098 0.000000 -0.937073
vn 0.159582 0.000000 -0.987181
vn 0.159582 0.000000 -0.987181
vn -0.036034 0.000000 -0.999350
vn -0.036034 0.000000 -0.999350
vn -0.230338 0.000000 -0.973122
vn -0.230338 0.000000 -0.973122
vn -0.415767 0.000000 -0.909472
vn -0.415767 0.000000 -0.909472
vn -0.585185 0.000000 -0.810902
vn -0.585185 0.000000 -0.810902
vn -0.732186 0.000000 -0.681102
vn -0.732186 0.000000 -0.681102
vn -0.850976 0.000000 -0.525195
vn -0.850976 0.000000 -0.525195
vn -0.937073 0.000000 -0.349098
vn -0.937073 0.000000 -0.349098
vn -0.987181 0.000000 -0.159582
vn -0.987181 0.000000 -0.159582
vn -0.999350 0.000000 0.036034
vn -0.999350 0.000000 0.036034
vn -0.973122 0.000000 0.230338
vn -0.973122 0.000000 0.230338
vn -0.909472 0.000000 0.415767
vn -0.909472 0.000000 0.415767
vn -0.810902 0.000000 0.585185
vn -0.810902 0.000000 0.585185
vn -0.681102 0.000000 0.732186
vn -0.681102 0.000000 0.732186
vn -0.525195 0.000000 0.850976
vn -0.525195 0.000000 0.850976
vn -0.349098 0.000000 0.937073
vn -0.349098 0.000000 0.937073
vn -0.159582 0.000000 0.987181
vn -0.159582 0.000000 0.987181
vn 0.036034 0.000000 0.999350
vn 0.036034 0.000000 0.999350
vn 0.230338 0.000000 0.973122
vn 0.230338 0.000000 0.973122
vn 0.415767 0.000000 0.909472
vn 0.415767 0.000000 0.909472
vn 0.585185 0.000000 0.810902
vn 0.585185 0.000000 0.810902
vn 0.732155 0.000000 0.681132
vn 0.732155 0.000000 0.681132
vn 0.850976 0.000000 0.525195
vn 0.850976 0.000000 0.525195
vn 0.937073 0.000000 0.349098
vn 0.937073 0.000000 0.349098

g prd00000007_oNWWNOk+++++3++-ID+HN_explode_3
usemtl Material_127_127_127_255
f 2//2 3//3 1//1
f 3//3 4//4 1//1
f 5//5 1//1 4//4
f 6//6 1//1 5//5
f 7//7 1//1 6//6
f 8//8 1//1 7//7
f 9//9 1//1 8//8
f 10//10 1//1 9//9
f 11//11 1//1 10//10
f 12//12 1//1 11//11
f 13//13 1//1 12//12
f 14//14 1//1 13//13
f 15//15 1//1 14//14
f 16//16 1//1 15//15
f 17//17 1//1 16//16
f 18//18 1//1 17//17
f 19//19 1//1 18//18
f 20//20 1//1 19//19
f 21//21 1//1 20//20
f 22//22 1//1 21//21
f 23//23 1//1 22//22
f 24//24 1//1 23//23
f 25//25 1//1 24//24
f 26//26 1//1 25//25
f 27//27 1//1 26//26
f 28//28 1//1 27//27
f 29//29 1//1 28//28
f 30//30 1//1 29//29
f 1//1 31//31 32//32
f 31//31 1//1 30//30
f 40//40 41//41 42//42
f 41//41 43//43 42//42
f 42//42 43//43 44//44
f 43//43 45//45 44//44
f 44//44 45//45 46//46
f 45//45 47//47 46//46
f 46//46 47//47 48//48
f 47//47 49//49 48//48
f 48//48 49//49 50//50
f 49//49 51//51 50//50
f 50//50 51//51 52//52
f 51//51 53//53 52//52
f 52//52 53//53 54//54
f 53//53 55//55 54//54
f 54//54 55//55 56//56
f 55//55 57//57 56//56
f 56//56 57//57 58//58
f 57//57 59//59 58//58
f 58//58 59//59 60//60
f 59//59 61//61 60//60
f 60//60 61//61 62//62
f 61//61 63//63 62//62
f 62//62 63//63 64//64
f 63//63 65//65 64//64
f 64//64 65//65 66//66
f 65//65 67//67 66//66
f 66//66 67//67 68//68
f 67//67 69//69 68//68
f 68//68 69//69 70//70
f 69//69 71//71 70//70
f 70//70 71//71 72//72
f 71//71 73//73 72//72
f 72//72 73//73 74//74
f 73//73 75//75 74//74
f 74//74 75//75 76//76
f 75//75 77//77 76//76
f 76//76 77//77 78//78
f 77//77 79//79 78//78
f 78//78 79//79 80//80
f 79//79 81//81 80//80
f 80//80 81//81 82//82
f 81//81 83//83 82//82
f 82//82 83//83 84//84
f 83//83 85//85 84//84
f 84//84 85//85 86//86
f 85//85 87//87 86//86
f 86//86 87//87 88//88
f 87//87 89//89 88//88
f 88//88 89//89 90//90
f 89//89 91//91 90//90
f 90//90 91//91 92//92
f 91//91 93//93 92//92
f 92//92 93//93 94//94
f 93//93 95//95 94//94
f 94//94 95//95 96//96
f 95//95 34//34 96//96
f 96//96 34//34 33//33
f 34//34 35//35 33//33
f 33//33 35//35 36//36
f 35//35 37//37 36//36
f 36//36 37//37 38//38
f 37//37 39//39 38//38
f 38//38 39//39 40//40
f 39//39 41//41 40//40
