
mtllib 6_0.mtl
v 1.590100 -0.004330 1.891500
v 1.590100 -0.002500 1.889669
v 1.590100 0.000000 1.889000
v 1.590100 0.002500 1.889669
v 1.590100 0.004330 1.891500
v 1.590100 0.005000 1.894000
v 1.590100 0.004330 1.896500
v 1.590100 0.002500 1.898330
v 1.590100 0.000000 1.899000
v 1.590100 -0.002500 1.898330
v 1.590100 -0.004330 1.896500
v 1.590100 -0.005000 1.894000
vn 1.000000 0.000000 0.000000
vn 1.000000 0.000000 0.000000
vn 1.000000 0.000000 0.000000
vn 1.000000 0.000000 0.000000
vn 1.000000 0.000000 0.000000
vn 1.000000 0.000000 0.000000
vn 1.000000 0.000000 0.000000
vn 1.000000 0.000000 0.000000
vn 1.000000 0.000000 0.000000
vn 1.000000 0.000000 0.000000
vn 1.000000 0.000000 0.000000
vn 1.000000 0.000000 0.000000

g prd00000017_oNWWNOk+++++3++-ID+HN_explode_1
usemtl Material_255_0_0_255
f 3//3 1//1 2//2
f 4//4 1//1 3//3
f 5//5 1//1 4//4
f 6//6 1//1 5//5
f 7//7 1//1 6//6
f 8//8 1//1 7//7
f 9//9 1//1 8//8
f 10//10 1//1 9//9
f 1//1 11//11 12//12
f 11//11 1//1 10//10
