
mtllib 6_2.mtl
v 1.579100 0.053116 1.772439
v 1.579100 0.053853 1.775190
v 1.579100 0.053116 1.777940
v 1.579100 0.051103 1.779959
v 1.579100 0.048353 1.780689
v 1.579100 0.045603 1.779959
v 1.579100 0.043590 1.777940
v 1.579100 0.042853 1.775190
v 1.579100 0.043590 1.772439
v 1.579100 0.045603 1.770430
v 1.579100 0.048353 1.769689
v 1.579100 0.051103 1.770430
v 1.579100 0.062264 1.791000
v 1.579100 0.060993 1.793270
v 1.579100 0.058817 1.794710
v 1.579100 0.056224 1.794980
v 1.579100 0.053798 1.794019
v 1.579100 0.052083 1.792059
v 1.579100 0.051465 1.789531
v 1.579100 0.051666 1.788060
v 1.579100 0.052937 1.785779
v 1.579100 0.055113 1.784349
v 1.579100 0.057706 1.784079
v 1.579100 0.060132 1.785030
v 1.579100 0.061847 1.786990
v 1.579100 0.062465 1.789531
v 1.579100 0.066733 1.807109
v 1.579100 0.066149 1.808470
v 1.579100 0.064116 1.810440
v 1.579100 0.061376 1.811140
v 1.579100 0.058650 1.810381
v 1.579100 0.056661 1.808370
v 1.579100 0.055934 1.805641
v 1.579100 0.056134 1.804170
v 1.579100 0.056719 1.802809
v 1.579100 0.058751 1.800839
v 1.579100 0.061491 1.800140
v 1.579100 0.064217 1.800899
v 1.579100 0.066206 1.802910
v 1.579100 0.066934 1.805641
v 1.579100 0.056381 1.820190
v 1.579100 0.057648 1.818369
v 1.579100 0.059844 1.817099
v 1.579100 0.062380 1.816939
v 1.579100 0.064712 1.817950
v 1.579100 0.066348 1.819889
v 1.579100 0.066934 1.822360
v 1.579100 0.066487 1.824529
v 1.579100 0.065219 1.826349
v 1.579100 0.063023 1.827630
v 1.579100 0.060488 1.827779
v 1.579100 0.058155 1.826779
v 1.579100 0.056520 1.824829
v 1.579100 0.055934 1.822360
v 1.579100 0.061094 1.842110
v 1.579100 0.059548 1.843329
v 1.579100 0.056822 1.843969
v 1.579100 0.054131 1.843190
v 1.579100 0.052178 1.841179
v 1.579100 0.051465 1.838470
v 1.579100 0.051819 1.836529
v 1.579100 0.052836 1.834839
v 1.579100 0.054384 1.833620
v 1.579100 0.057110 1.832980
v 1.579100 0.059798 1.833759
v 1.579100 0.061752 1.835770
v 1.579100 0.062465 1.838470
v 1.579100 0.062111 1.840420
v 1.579100 0.044910 1.857101
v 1.579100 0.043394 1.855190
v 1.579100 0.042853 1.852809
v 1.579100 0.043402 1.850409
v 1.579100 0.044942 1.848490
v 1.579100 0.047163 1.847439
v 1.579100 0.049601 1.847449
v 1.579100 0.051795 1.848519
v 1.579100 0.053313 1.850430
v 1.579100 0.053853 1.852809
v 1.579100 0.053303 1.855200
v 1.579100 0.051765 1.857119
v 1.579100 0.049543 1.858179
v 1.579100 0.047103 1.858160
v 1.579100 0.009434 1.880780
v 1.579100 0.006684 1.880043
v 1.579100 0.004671 1.878030
v 1.579100 0.003928 1.875277
v 1.579100 0.004671 1.872529
v 1.579100 0.006678 1.870512
v 1.579100 0.009434 1.869780
v 1.579100 0.012184 1.870516
v 1.579100 0.014197 1.872529
v 1.579100 0.014932 1.875279
v 1.579100 0.014197 1.878030
v 1.579100 0.012182 1.880041
v 1.579100 -0.011213 1.879423
v 1.579100 -0.012544 1.877185
v 1.579100 -0.012703 1.874581
v 1.579100 -0.011640 1.872200
v 1.579100 -0.009596 1.870580
v 1.579100 -0.007040 1.870075
v 1.579100 -0.004541 1.870805
v 1.579100 -0.003368 1.871713
v 1.579100 -0.002029 1.873955
v 1.579100 -0.001880 1.876555
v 1.579100 -0.002941 1.878937
v 1.579100 -0.004978 1.880561
v 1.579100 -0.007533 1.881066
v 1.579100 -0.010041 1.880332
v 1.579100 -0.027399 1.875238
v 1.579100 -0.028285 1.874051
v 1.579100 -0.028975 1.871306
v 1.579100 -0.028212 1.868583
v 1.579100 -0.026191 1.866603
v 1.579100 -0.023455 1.865885
v 1.579100 -0.020727 1.866619
v 1.579100 -0.019554 1.867528
v 1.579100 -0.018668 1.868716
v 1.579100 -0.017979 1.871459
v 1.579100 -0.018742 1.874182
v 1.579100 -0.020763 1.876163
v 1.579100 -0.023499 1.876881
v 1.579100 -0.026227 1.876146
v 1.579100 -0.033551 1.859731
v 1.579100 -0.032609 1.861738
v 1.579100 -0.032607 1.864277
v 1.579100 -0.033736 1.866552
v 1.579100 -0.035776 1.868068
v 1.579100 -0.038274 1.868514
v 1.579100 -0.040706 1.867785
v 1.579100 -0.042363 1.866314
v 1.579100 -0.043305 1.864308
v 1.579100 -0.043315 1.861765
v 1.579100 -0.042178 1.859494
v 1.579100 -0.040146 1.857974
v 1.579100 -0.037638 1.857532
v 1.579100 -0.035206 1.858260
v 1.579100 -0.054891 1.852856
v 1.579100 -0.055173 1.850904
v 1.579100 -0.054365 1.848224
v 1.579100 -0.052346 1.846285
v 1.579100 -0.049628 1.845598
v 1.579100 -0.046923 1.846336
v 1.579100 -0.045421 1.847611
v 1.579100 -0.044465 1.849337
v 1.579100 -0.044183 1.851287
v 1.579100 -0.044992 1.853969
v 1.579100 -0.047011 1.855906
v 1.579100 -0.049729 1.856593
v 1.579100 -0.052423 1.855861
v 1.579100 -0.053935 1.854580
v 1.579100 -0.059781 1.831343
v 1.579100 -0.057369 1.830985
v 1.579100 -0.055036 1.831707
v 1.579100 -0.053234 1.833383
v 1.579100 -0.052340 1.835676
v 1.579100 -0.052541 1.838125
v 1.579100 -0.053769 1.840232
v 1.579100 -0.055793 1.841596
v 1.579100 -0.058206 1.841954
v 1.579100 -0.060536 1.841232
v 1.579100 -0.062333 1.839563
v 1.579100 -0.063225 1.837269
v 1.579100 -0.063032 1.834817
v 1.579100 -0.061796 1.832714
v 1.579100 -0.062551 1.788780
v 1.579100 -0.060536 1.786767
v 1.579100 -0.057786 1.786030
v 1.579100 -0.055030 1.786763
v 1.579100 -0.053023 1.788780
v 1.579100 -0.052280 1.791527
v 1.579100 -0.053023 1.794281
v 1.579100 -0.055036 1.796294
v 1.579100 -0.057786 1.797030
v 1.579100 -0.060534 1.796292
v 1.579100 -0.062551 1.794281
v 1.579100 -0.063284 1.791529
v 1.579100 -0.051050 1.771577
v 1.579100 -0.048449 1.771543
v 1.579100 -0.046115 1.772709
v 1.579100 -0.044583 1.774820
v 1.579100 -0.044201 1.777400
v 1.579100 -0.045042 1.779865
v 1.579100 -0.046923 1.781665
v 1.579100 -0.048298 1.782227
v 1.579100 -0.050907 1.782264
v 1.579100 -0.053234 1.781094
v 1.579100 -0.054764 1.778985
v 1.579100 -0.055155 1.776409
v 1.579100 -0.054315 1.773944
v 1.579100 -0.052423 1.772138
v 1.579100 -0.039333 1.759651
v 1.579100 -0.037863 1.759479
v 1.579100 -0.035142 1.760252
v 1.579100 -0.033165 1.762276
v 1.579100 -0.032460 1.765017
v 1.579100 -0.033207 1.767746
v 1.579100 -0.035206 1.769740
v 1.579100 -0.036581 1.770301
v 1.579100 -0.038051 1.770475
v 1.579100 -0.040772 1.769702
v 1.579100 -0.042749 1.767676
v 1.579100 -0.043454 1.764937
v 1.579100 -0.042707 1.762208
v 1.579100 -0.040706 1.760214
v 1.579100 -0.022829 1.762079
v 1.579100 -0.025039 1.761891
v 1.579100 -0.027238 1.760623
v 1.579100 -0.028643 1.758507
v 1.579100 -0.028935 1.755981
v 1.579100 -0.028073 1.753596
v 1.579100 -0.026227 1.751853
v 1.579100 -0.024125 1.751155
v 1.579100 -0.021915 1.751343
v 1.579100 -0.019707 1.752605
v 1.579100 -0.018311 1.754725
v 1.579100 -0.018009 1.757247
v 1.579100 -0.018881 1.759637
v 1.579100 -0.020727 1.761380
v 1.579100 -0.006204 1.747035
v 1.579100 -0.004374 1.747765
v 1.579100 -0.002456 1.749807
v 1.579100 -0.001787 1.752526
v 1.579100 -0.002550 1.755222
v 1.579100 -0.004541 1.757194
v 1.579100 -0.006398 1.757859
v 1.579100 -0.008370 1.757824
v 1.579100 -0.010200 1.757094
v 1.579100 -0.012117 1.755052
v 1.579100 -0.012787 1.752333
v 1.579100 -0.012024 1.749635
v 1.579100 -0.010041 1.747669
v 1.579100 -0.008175 1.747000
v 1.579100 0.014870 1.753557
v 1.579100 0.013974 1.755825
v 1.579100 0.012184 1.757482
v 1.579100 0.009831 1.758207
v 1.579100 0.007399 1.757834
v 1.579100 0.005378 1.756437
v 1.579100 0.004168 1.754318
v 1.579100 0.003997 1.751883
v 1.579100 0.004894 1.749615
v 1.579100 0.006684 1.747958
v 1.579100 0.009029 1.747238
v 1.579100 0.011461 1.747612
v 1.579100 0.013489 1.749005
v 1.579100 0.014692 1.751126
vn 1.000000 0.000000 0.000000
vn 1.000000 0.000000 0.000000
vn 1.000000 0.000000 0.000000
vn 1.000000 0.000000 0.000000
vn 1.000000 0.000000 0.000000
vn 1.000000 0.000000 0.000000
vn 1.000000 0.000000 0.000000
vn 1.000000 0.000000 0.000000
vn 1.000000 0.000000 0.000000
vn 1.000000 0.000000 0.000000
vn 1.000000 0.000000 0.000000
vn 1.000000 0.000000 0.000000
vn 1.000000 0.000000 0.000000
vn 1.000000 0.000000 0.000000
vn 1.000000 0.000000 0.000000
vn 1.000000 0.000000 0.000000
vn 1.000000 0.000000 0.000000
vn 1.000000 0.000000 0.000000
vn 1.000000 0.000000 0.000000
vn 1.000000 0.000000 0.000000
vn 1.000000 0.000000 0.000000
vn 1.000000 0.000000 0.000000
vn 1.000000 0.000000 0.000000
vn 1.000000 0.000000 0.000000
vn 1.000000 0.000000 0.000000
vn 1.000000 0.000000 0.000000
vn 1.000000 0.000000 0.000000
vn 1.000000 0.000000 0.000000
vn 1.000000 0.000000 0.000000
vn 1.000000 0.000000 0.000000
vn 1.000000 0.000000 0.000000
vn 1.000000 0.000000 0.000000
vn 1.000000 0.000000 0.000000
vn 1.000000 0.000000 0.000000
vn 1.000000 0.000000 0.000000
vn 1.000000 0.000000 0.000000
vn 1.000000 0.000000 0.000000
vn 1.000000 0.000000 0.000000
vn 1.000000 0.000000 0.000000
vn 1.000000 0.000000 0.000000
vn 1.000000 0.000000 0.000000
vn 1.000000 0.000000 0.000000
vn 1.000000 0.000000 0.000000
vn 1.000000 0.000000 0.000000
vn 1.000000 0.000000 0.000000
vn 1.000000 0.000000 0.000000
vn 1.000000 0.000000 0.000000
vn 1.000000 0.000000 0.000000
vn 1.000000 0.000000 0.000000
vn 1.000000 0.000000 0.000000
vn 1.000000 0.000000 0.000000
vn 1.000000 0.000000 0.000000
vn 1.000000 0.000000 0.000000
vn 1.000000 0.000000 0.000000
vn 1.000000 0.000000 0.000000
vn 1.000000 0.000000 0.000000
vn 1.000000 0.000000 0.000000
vn 1.000000 0.000000 0.000000
vn 1.000000 0.000000 0.000000
vn 1.000000 0.000000 0.000000
vn 1.000000 0.000000 0.000000
vn 1.000000 0.000000 0.000000
vn 1.000000 0.000000 0.000000
vn 1.000000 0.000000 0.000000
vn 1.000000 0.000000 0.000000
vn 1.000000 0.000000 0.000000
vn 1.000000 0.000000 0.000000
vn 1.000000 0.000000 0.000000
vn 1.000000 0.000000 0.000000
vn 1.000000 0.000000 0.000000
vn 1.000000 0.000000 0.000000
vn 1.000000 0.000000 0.000000
vn 1.000000 0.000000 0.000000
vn 1.000000 0.000000 0.000000
vn 1.000000 0.000000 0.000000
vn 1.000000 0.000000 0.000000
vn 1.000000 0.000000 0.000000
vn 1.000000 0.000000 0.000000
vn 1.000000 0.000000 0.000000
vn 1.000000 0.000000 0.000000
vn 1.000000 0.000000 0.000000
vn 1.000000 0.000000 0.000000
vn 1.000000 0.000000 0.000000
vn 1.000000 0.000000 0.000000
vn 1.000000 0.000000 0.000000
vn 1.000000 0.000000 0.000000
vn 1.000000 0.000000 0.000000
vn 1.000000 0.000000 0.000000
vn 1.000000 0.000000 0.000000
vn 1.000000 0.000000 0.000000
vn 1.000000 0.000000 0.000000
vn 1.000000 0.000000 0.000000
vn 1.000000 0.000000 0.000000
vn 1.000000 0.000000 0.000000
vn 1.000000 0.000000 0.000000
vn 1.000000 0.000000 0.000000
vn 1.000000 0.000000 0.000000
vn 1.000000 0.000000 0.000000
vn 1.000000 0.000000 0.000000
vn 1.000000 0.000000 0.000000
vn 1.000000 0.000000 0.000000
vn 1.000000 0.000000 0.000000
vn 1.000000 0.000000 0.000000
vn 1.000000 0.000000 0.000000
vn 1.000000 0.000000 0.000000
vn 1.000000 0.000000 0.000000
vn 1.000000 0.000000 0.000000
vn 1.000000 0.000000 0.000000
vn 1.000000 0.000000 0.000000
vn 1.000000 0.000000 0.000000
vn 1.000000 0.000000 0.000000
vn 1.000000 0.000000 0.000000
vn 1.000000 0.000000 0.000000
vn 1.000000 0.000000 0.000000
vn 1.000000 0.000000 0.000000
vn 1.000000 0.000000 0.000000
vn 1.000000 0.000000 0.000000
vn 1.000000 0.000000 0.000000
vn 1.000000 0.000000 0.000000
vn 1.000000 0.000000 0.000000
vn 1.000000 0.000000 0.000000
vn 1.000000 0.000000 0.000000
vn 1.000000 0.000000 0.000000
vn 1.000000 0.000000 0.000000
vn 1.000000 0.000000 0.000000
vn 1.000000 0.000000 0.000000
vn 1.000000 0.000000 0.000000
vn 1.000000 0.000000 0.000000
vn 1.000000 0.000000 0.000000
vn 1.000000 0.000000 0.000000
vn 1.000000 0.000000 0.000000
vn 1.000000 0.000000 0.000000
vn 1.000000 0.000000 0.000000
vn 1.000000 0.000000 0.000000
vn 1.000000 0.000000 0.000000
vn 1.000000 0.000000 0.000000
vn 1.000000 0.000000 0.000000
vn 1.000000 0.000000 0.000000
vn 1.000000 0.000000 0.000000
vn 1.000000 0.000000 0.000000
vn 1.000000 0.000000 0.000000
vn 1.000000 0.000000 0.000000
vn 1.000000 0.000000 0.000000
vn 1.000000 0.000000 0.000000
vn 1.000000 0.000000 0.000000
vn 1.000000 0.000000 0.000000
vn 1.000000 0.000000 0.000000
vn 1.000000 0.000000 0.000000
vn 1.000000 0.000000 0.000000
vn 1.000000 0.000000 0.000000
vn 1.000000 0.000000 0.000000
vn 1.000000 0.000000 0.000000
vn 1.000000 0.000000 0.000000
vn 1.000000 0.000000 0.000000
vn 1.000000 0.000000 0.000000
vn 1.000000 0.000000 0.000000
vn 1.000000 0.000000 0.000000
vn 1.000000 0.000000 0.000000
vn 1.000000 0.000000 0.000000
vn 1.000000 0.000000 0.000000
vn 1.000000 0.000000 0.000000
vn 1.000000 0.000000 0.000000
vn 1.000000 0.000000 0.000000
vn 1.000000 0.000000 0.000000
vn 1.000000 0.000000 0.000000
vn 1.000000 0.000000 0.000000
vn 1.000000 0.000000 0.000000
vn 1.000000 0.000000 0.000000
vn 1.000000 0.000000 0.000000
vn 1.000000 0.000000 0.000000
vn 1.000000 0.000000 0.000000
vn 1.000000 0.000000 0.000000
vn 1.000000 0.000000 0.000000
vn 1.000000 0.000000 0.000000
vn 1.000000 0.000000 0.000000
vn 1.000000 0.000000 0.000000
vn 1.000000 0.000000 0.000000
vn 1.000000 0.000000 0.000000
vn 1.000000 0.000000 0.000000
vn 1.000000 0.000000 0.000000
vn 1.000000 0.000000 0.000000
vn 1.000000 0.000000 0.000000
vn 1.000000 0.000000 0.000000
vn 1.000000 0.000000 0.000000
vn 1.000000 0.000000 0.000000
vn 1.000000 0.000000 0.000000
vn 1.000000 0.000000 0.000000
vn 1.000000 0.000000 0.000000
vn 1.000000 0.000000 0.000000
vn 1.000000 0.000000 0.000000
vn 1.000000 0.000000 0.000000
vn 1.000000 0.000000 0.000000
vn 1.000000 0.000000 0.000000
vn 1.000000 0.000000 0.000000
vn 1.000000 0.000000 0.000000
vn 1.000000 0.000000 0.000000
vn 1.000000 0.000000 0.000000
vn 1.000000 0.000000 0.000000
vn 1.000000 0.000000 0.000000
vn 1.000000 0.000000 0.000000
vn 1.000000 0.000000 0.000000
vn 1.000000 0.000000 0.000000
vn 1.000000 0.000000 0.000000
vn 1.000000 0.000000 0.000000
vn 1.000000 0.000000 0.000000
vn 1.000000 0.000000 0.000000
vn 1.000000 0.000000 0.000000
vn 1.000000 0.000000 0.000000
vn 1.000000 0.000000 0.000000
vn 1.000000 0.000000 0.000000
vn 1.000000 0.000000 0.000000
vn 1.000000 0.000000 0.000000
vn 1.000000 0.000000 0.000000
vn 1.000000 0.000000 0.000000
vn 1.000000 0.000000 0.000000
vn 1.000000 0.000000 0.000000
vn 1.000000 0.000000 0.000000
vn 1.000000 0.000000 0.000000
vn 1.000000 0.000000 0.000000
vn 1.000000 0.000000 0.000000
vn 1.000000 0.000000 0.000000
vn 1.000000 0.000000 0.000000
vn 1.000000 0.000000 0.000000
vn 1.000000 0.000000 0.000000
vn 1.000000 0.000000 0.000000
vn 1.000000 0.000000 0.000000
vn 1.000000 0.000000 0.000000
vn 1.000000 0.000000 0.000000
vn 1.000000 0.000000 0.000000
vn 1.000000 0.000000 0.000000
vn 1.000000 0.000000 0.000000
vn 1.000000 0.000000 0.000000
vn 1.000000 0.000000 0.000000
vn 1.000000 0.000000 0.000000
vn 1.000000 0.000000 0.000000
vn 1.000000 0.000000 0.000000
vn 1.000000 0.000000 0.000000
vn 1.000000 0.000000 0.000000
vn 1.000000 0.000000 0.000000
vn 1.000000 0.000000 0.000000
vn 1.000000 0.000000 0.000000
vn 1.000000 0.000000 0.000000
vn 1.000000 0.000000 0.000000
vn 1.000000 0.000000 0.000000
vn 1.000000 0.000000 0.000000
vn 1.000000 0.000000 0.000000

g prd00000017_oNWWNOk+++++3++-ID+HN_explode_3
usemtl Material_127_127_127_255
f 3//3 1//1 2//2
f 4//4 1//1 3//3
f 5//5 1//1 4//4
f 6//6 1//1 5//5
f 7//7 1//1 6//6
f 8//8 1//1 7//7
f 9//9 1//1 8//8
f 10//10 1//1 9//9
f 1//1 11//11 12//12
f 11//11 1//1 10//10
f 15//15 13//13 14//14
f 16//16 13//13 15//15
f 17//17 13//13 16//16
f 18//18 13//13 17//17
f 19//19 13//13 18//18
f 20//20 13//13 19//19
f 21//21 13//13 20//20
f 22//22 13//13 21//21
f 23//23 13//13 22//22
f 24//24 13//13 23//23
f 13//13 25//25 26//26
f 25//25 13//13 24//24
f 29//29 27//27 28//28
f 30//30 27//27 29//29
f 31//31 27//27 30//30
f 32//32 27//27 31//31
f 33//33 27//27 32//32
f 34//34 27//27 33//33
f 35//35 27//27 34//34
f 36//36 27//27 35//35
f 37//37 27//27 36//36
f 38//38 27//27 37//37
f 27//27 39//39 40//40
f 39//39 27//27 38//38
f 43//43 41//41 42//42
f 44//44 41//41 43//43
f 45//45 41//41 44//44
f 46//46 41//41 45//45
f 47//47 41//41 46//46
f 48//48 41//41 47//47
f 49//49 41//41 48//48
f 50//50 41//41 49//49
f 51//51 41//41 50//50
f 52//52 41//41 51//51
f 41//41 53//53 54//54
f 53//53 41//41 52//52
f 57//57 55//55 56//56
f 58//58 55//55 57//57
f 59//59 55//55 58//58
f 60//60 55//55 59//59
f 61//61 55//55 60//60
f 62//62 55//55 61//61
f 63//63 55//55 62//62
f 64//64 55//55 63//63
f 65//65 55//55 64//64
f 66//66 55//55 65//65
f 55//55 67//67 68//68
f 67//67 55//55 66//66
f 71//71 69//69 70//70
f 72//72 69//69 71//71
f 73//73 69//69 72//72
f 74//74 69//69 73//73
f 75//75 69//69 74//74
f 76//76 69//69 75//75
f 77//77 69//69 76//76
f 78//78 69//69 77//77
f 79//79 69//69 78//78
f 80//80 69//69 79//79
f 69//69 81//81 82//82
f 81//81 69//69 80//80
f 85//85 83//83 84//84
f 86//86 83//83 85//85
f 87//87 83//83 86//86
f 88//88 83//83 87//87
f 89//89 83//83 88//88
f 90//90 83//83 89//89
f 91//91 83//83 90//90
f 92//92 83//83 91//91
f 83//83 93//93 94//94
f 93//93 83//83 92//92
f 97//97 95//95 96//96
f 98//98 95//95 97//97
f 99//99 95//95 98//98
f 100//100 95//95 99//99
f 101//101 95//95 100//100
f 102//102 95//95 101//101
f 103//103 95//95 102//102
f 104//104 95//95 103//103
f 105//105 95//95 104//104
f 106//106 95//95 105//105
f 95//95 107//107 108//108
f 107//107 95//95 106//106
f 111//111 109//109 110//110
f 112//112 109//109 111//111
f 113//113 109//109 112//112
f 114//114 109//109 113//113
f 115//115 109//109 114//114
f 116//116 109//109 115//115
f 117//117 109//109 116//116
f 118//118 109//109 117//117
f 119//119 109//109 118//118
f 120//120 109//109 119//119
f 109//109 121//121 122//122
f 121//121 109//109 120//120
f 125//125 123//123 124//124
f 126//126 123//123 125//125
f 127//127 123//123 126//126
f 128//128 123//123 127//127
f 129//129 123//123 128//128
f 130//130 123//123 129//129
f 131//131 123//123 130//130
f 132//132 123//123 131//131
f 133//133 123//123 132//132
f 134//134 123//123 133//133
f 123//123 135//135 136//136
f 135//135 123//123 134//134
f 139//139 137//137 138//138
f 140//140 137//137 139//139
f 141//141 137//137 140//140
f 142//142 137//137 141//141
f 143//143 137//137 142//142
f 144//144 137//137 143//143
f 145//145 137//137 144//144
f 146//146 137//137 145//145
f 147//147 137//137 146//146
f 148//148 137//137 147//147
f 137//137 149//149 150//150
f 149//149 137//137 148//148
f 153//153 151//151 152//152
f 154//154 151//151 153//153
f 155//155 151//151 154//154
f 156//156 151//151 155//155
f 157//157 151//151 156//156
f 158//158 151//151 157//157
f 159//159 151//151 158//158
f 160//160 151//151 159//159
f 161//161 151//151 160//160
f 162//162 151//151 161//161
f 151//151 163//163 164//164
f 163//163 151//151 162//162
f 167//167 165//165 166//166
f 168//168 165//165 167//167
f 169//169 165//165 168//168
f 170//170 165//165 169//169
f 171//171 165//165 170//170
f 172//172 165//165 171//171
f 173//173 165//165 172//172
f 174//174 165//165 173//173
f 165//165 175//175 176//176
f 175//175 165//165 174//174
f 179//179 177//177 178//178
f 180//180 177//177 179//179
f 181//181 177//177 180//180
f 182//182 177//177 181//181
f 183//183 177//177 182//182
f 184//184 177//177 183//183
f 185//185 177//177 184//184
f 186//186 177//177 185//185
f 187//187 177//177 186//186
f 188//188 177//177 187//187
f 177//177 189//189 190//190
f 189//189 177//177 188//188
f 193//193 191//191 192//192
f 194//194 191//191 193//193
f 195//195 191//191 194//194
f 196//196 191//191 195//195
f 197//197 191//191 196//196
f 198//198 191//191 197//197
f 199//199 191//191 198//198
f 200//200 191//191 199//199
f 201//201 191//191 200//200
f 202//202 191//191 201//201
f 191//191 203//203 204//204
f 203//203 191//191 202//202
f 207//207 205//205 206//206
f 208//208 205//205 207//207
f 209//209 205//205 208//208
f 210//210 205//205 209//209
f 211//211 205//205 210//210
f 212//212 205//205 211//211
f 213//213 205//205 212//212
f 214//214 205//205 213//213
f 215//215 205//205 214//214
f 216//216 205//205 215//215
f 205//205 217//217 218//218
f 217//217 205//205 216//216
f 221//221 219//219 220//220
f 222//222 219//219 221//221
f 223//223 219//219 222//222
f 224//224 219//219 223//223
f 225//225 219//219 224//224
f 226//226 219//219 225//225
f 227//227 219//219 226//226
f 228//228 219//219 227//227
f 229//229 219//219 228//228
f 230//230 219//219 229//229
f 219//219 231//231 232//232
f 231//231 219//219 230//230
f 235//235 233//233 234//234
f 236//236 233//233 235//235
f 237//237 233//233 236//236
f 238//238 233//233 237//237
f 239//239 233//233 238//238
f 240//240 233//233 239//239
f 241//241 233//233 240//240
f 242//242 233//233 241//241
f 243//243 233//233 242//242
f 244//244 233//233 243//243
f 233//233 245//245 246//246
f 245//245 233//233 244//244
